G04*
G04 #@! TF.GenerationSoftware,Altium Limited,Altium Designer Develop,26.10.1 (6)*
G04*
G04 Layer_Color=8421504*
G04 Board_Origin=40550000|29750000*
%FSLAX25Y25*%
%MOIN*%
G70*
G04*
G04 #@! TF.SameCoordinates,60A3A3B2-8CA2-48B1-86F7-AA12094F7120*
G04*
G04*
G04 #@! TF.FilePolarity,Positive*
G04*
G01*
G75*
G04:AMPARAMS|DCode=16|XSize=21.65mil|YSize=19.68mil|CornerRadius=2.46mil|HoleSize=0mil|Usage=FLASHONLY|Rotation=180.000|XOffset=0mil|YOffset=0mil|HoleType=Round|Shape=RoundedRectangle|*
%AMROUNDEDRECTD16*
21,1,0.02165,0.01476,0,0,180.0*
21,1,0.01673,0.01968,0,0,180.0*
1,1,0.00492,-0.00837,0.00738*
1,1,0.00492,0.00837,0.00738*
1,1,0.00492,0.00837,-0.00738*
1,1,0.00492,-0.00837,-0.00738*
%
%ADD16ROUNDEDRECTD16*%
%ADD17R,0.07087X0.04724*%
%ADD18R,0.06102X0.02362*%
G04:AMPARAMS|DCode=19|XSize=21.65mil|YSize=19.68mil|CornerRadius=2.46mil|HoleSize=0mil|Usage=FLASHONLY|Rotation=90.000|XOffset=0mil|YOffset=0mil|HoleType=Round|Shape=RoundedRectangle|*
%AMROUNDEDRECTD19*
21,1,0.02165,0.01476,0,0,90.0*
21,1,0.01673,0.01968,0,0,90.0*
1,1,0.00492,0.00738,0.00837*
1,1,0.00492,0.00738,-0.00837*
1,1,0.00492,-0.00738,-0.00837*
1,1,0.00492,-0.00738,0.00837*
%
%ADD19ROUNDEDRECTD19*%
%ADD20R,0.03150X0.01968*%
%ADD21R,0.14173X0.14173*%
%ADD22R,0.01575X0.01378*%
%ADD23R,0.01378X0.01575*%
G04:AMPARAMS|DCode=24|XSize=29.92mil|YSize=26mil|CornerRadius=3.25mil|HoleSize=0mil|Usage=FLASHONLY|Rotation=180.000|XOffset=0mil|YOffset=0mil|HoleType=Round|Shape=RoundedRectangle|*
%AMROUNDEDRECTD24*
21,1,0.02992,0.01950,0,0,180.0*
21,1,0.02342,0.02600,0,0,180.0*
1,1,0.00650,-0.01171,0.00975*
1,1,0.00650,0.01171,0.00975*
1,1,0.00650,0.01171,-0.00975*
1,1,0.00650,-0.01171,-0.00975*
%
%ADD24ROUNDEDRECTD24*%
%ADD25R,0.04724X0.02362*%
G04:AMPARAMS|DCode=26|XSize=29.92mil|YSize=26mil|CornerRadius=3.25mil|HoleSize=0mil|Usage=FLASHONLY|Rotation=90.000|XOffset=0mil|YOffset=0mil|HoleType=Round|Shape=RoundedRectangle|*
%AMROUNDEDRECTD26*
21,1,0.02992,0.01950,0,0,90.0*
21,1,0.02342,0.02600,0,0,90.0*
1,1,0.00650,0.00975,0.01171*
1,1,0.00650,0.00975,-0.01171*
1,1,0.00650,-0.00975,-0.01171*
1,1,0.00650,-0.00975,0.01171*
%
%ADD26ROUNDEDRECTD26*%
%ADD27R,0.05512X0.02362*%
%ADD28R,0.04724X0.03150*%
%ADD29R,0.03347X0.00984*%
%ADD30R,0.04724X0.02756*%
%ADD31R,0.04724X0.02992*%
%ADD32R,0.00984X0.03347*%
D16*
X19000Y30457D02*
D03*
Y34000D02*
D03*
X14287Y69008D02*
D03*
X-8000Y26000D02*
D03*
X93500Y-17728D02*
D03*
X91500Y-7772D02*
D03*
X94000Y5543D02*
D03*
X112500Y48272D02*
D03*
X91500Y-4228D02*
D03*
X94000Y2000D02*
D03*
X83500Y45957D02*
D03*
Y49500D02*
D03*
X14287Y65465D02*
D03*
X-2000Y40043D02*
D03*
X93500Y-21272D02*
D03*
X-2000Y36500D02*
D03*
X-8000Y22457D02*
D03*
X112500Y44728D02*
D03*
D17*
X-103988Y-22835D02*
D03*
Y-8661D02*
D03*
D18*
X-119244Y-13780D02*
D03*
Y-17717D02*
D03*
D19*
X11043Y-26500D02*
D03*
X12043Y-38000D02*
D03*
X-59327Y-11205D02*
D03*
X-25000Y6000D02*
D03*
X-58772Y29500D02*
D03*
X-23272Y16000D02*
D03*
X87543Y-63000D02*
D03*
X8000Y27000D02*
D03*
X4457D02*
D03*
X-21457Y6000D02*
D03*
X-55783Y-11205D02*
D03*
X-55228Y29500D02*
D03*
X-19728Y16000D02*
D03*
X66043Y-63000D02*
D03*
X62500D02*
D03*
X8500Y-38000D02*
D03*
X7500Y-26500D02*
D03*
X84000Y-63000D02*
D03*
D20*
X-59724Y-1630D02*
D03*
Y9000D02*
D03*
Y1913D02*
D03*
Y5457D02*
D03*
X-55000Y9000D02*
D03*
Y5457D02*
D03*
Y1913D02*
D03*
Y-1630D02*
D03*
D21*
X1500Y2000D02*
D03*
D22*
X-48461Y60539D02*
D03*
X-42476Y62508D02*
D03*
Y60539D02*
D03*
X-48461Y62508D02*
D03*
D23*
X-48421Y58531D02*
D03*
X-46453D02*
D03*
Y64516D02*
D03*
X-42516Y58531D02*
D03*
X-44484Y64516D02*
D03*
Y58531D02*
D03*
X-42516Y64516D02*
D03*
X-48421D02*
D03*
D24*
X-25000Y32000D02*
D03*
X14500Y56756D02*
D03*
Y51244D02*
D03*
X-25000Y26488D02*
D03*
D25*
X84079Y-38000D02*
D03*
X93921Y-34260D02*
D03*
X84079D02*
D03*
Y-41740D02*
D03*
X93921D02*
D03*
D26*
X93756Y28000D02*
D03*
X100512Y53000D02*
D03*
X95000D02*
D03*
X88244Y28000D02*
D03*
D27*
X96079Y41000D02*
D03*
X105921Y37260D02*
D03*
Y44740D02*
D03*
X96079Y37260D02*
D03*
Y44740D02*
D03*
D28*
X105500Y-11500D02*
D03*
Y10153D02*
D03*
D29*
X11146Y8890D02*
D03*
Y6921D02*
D03*
Y4953D02*
D03*
Y2984D02*
D03*
Y1016D02*
D03*
Y-953D02*
D03*
Y-2921D02*
D03*
Y-4890D02*
D03*
X-8146D02*
D03*
Y-2921D02*
D03*
Y-953D02*
D03*
Y1016D02*
D03*
Y2984D02*
D03*
Y4953D02*
D03*
Y6921D02*
D03*
Y8890D02*
D03*
D30*
X105500Y-2642D02*
D03*
Y1295D02*
D03*
D31*
Y5311D02*
D03*
Y-6657D02*
D03*
D32*
X-5390Y11646D02*
D03*
X-3421D02*
D03*
X-1453D02*
D03*
X516D02*
D03*
X2484D02*
D03*
X4453D02*
D03*
X6421D02*
D03*
X8390D02*
D03*
Y-7646D02*
D03*
X6421D02*
D03*
X4453D02*
D03*
X2484D02*
D03*
X516D02*
D03*
X-1453D02*
D03*
X-3421D02*
D03*
X-5390D02*
D03*
M02*
