G04*
G04 #@! TF.GenerationSoftware,Altium Limited,Altium Designer Develop,26.10.1 (6)*
G04*
G04 Layer_Physical_Order=2*
G04 Layer_Color=36540*
G04 Board_Origin=40550000|29750000*
%FSLAX25Y25*%
%MOIN*%
G70*
G04*
G04 #@! TF.SameCoordinates,60A3A3B2-8CA2-48B1-86F7-AA12094F7120*
G04*
G04*
G04 #@! TF.FilePolarity,Positive*
G04*
G01*
G75*
%ADD34C,0.07913*%
%ADD35C,0.20000*%
%ADD36C,0.17700*%
%ADD37C,0.06102*%
%ADD38C,0.06299*%
G04:AMPARAMS|DCode=39|XSize=62.99mil|YSize=62.99mil|CornerRadius=15.75mil|HoleSize=0mil|Usage=FLASHONLY|Rotation=180.000|XOffset=0mil|YOffset=0mil|HoleType=Round|Shape=RoundedRectangle|*
%AMROUNDEDRECTD39*
21,1,0.06299,0.03150,0,0,180.0*
21,1,0.03150,0.06299,0,0,180.0*
1,1,0.03150,-0.01575,0.01575*
1,1,0.03150,0.01575,0.01575*
1,1,0.03150,0.01575,-0.01575*
1,1,0.03150,-0.01575,-0.01575*
%
%ADD39ROUNDEDRECTD39*%
%ADD42C,0.02000*%
G36*
X10716Y132250D02*
X17858Y131476D01*
X24949Y130317D01*
X31966Y128775D01*
X38889Y126856D01*
X45698Y124566D01*
X52373Y121910D01*
X58895Y118896D01*
X65244Y115534D01*
X71402Y111833D01*
X77350Y107805D01*
X83072Y103460D01*
X88550Y98812D01*
X93768Y93874D01*
X98712Y88661D01*
X103366Y83189D01*
X107717Y77472D01*
X111753Y71528D01*
X115460Y65374D01*
X118830Y59029D01*
X121850Y52511D01*
X124514Y45839D01*
X126812Y39032D01*
X128739Y32111D01*
X129485Y28733D01*
X129485Y-28734D01*
X128739Y-32111D01*
X126812Y-39032D01*
X124514Y-45839D01*
X121850Y-52511D01*
X118830Y-59029D01*
X115460Y-65374D01*
X111753Y-71528D01*
X107717Y-77472D01*
X103366Y-83189D01*
X98712Y-88662D01*
X93768Y-93874D01*
X88550Y-98812D01*
X83072Y-103460D01*
X77350Y-107805D01*
X71402Y-111833D01*
X65244Y-115534D01*
X58895Y-118896D01*
X52373Y-121910D01*
X45698Y-124566D01*
X38889Y-126857D01*
X31966Y-128775D01*
X24948Y-130317D01*
X17858Y-131476D01*
X10716Y-132250D01*
X3542Y-132636D01*
X-3642Y-132633D01*
X-10816Y-132242D01*
X-17957Y-131463D01*
X-25047Y-130298D01*
X-32063Y-128751D01*
X-38984Y-126827D01*
X-45792Y-124531D01*
X-52465Y-121870D01*
X-58985Y-118852D01*
X-65331Y-115485D01*
X-71486Y-111779D01*
X-77431Y-107746D01*
X-83150Y-103397D01*
X-88624Y-98745D01*
X-93839Y-93804D01*
X-98779Y-88587D01*
X-103429Y-83111D01*
X-107776Y-77391D01*
X-111806Y-71444D01*
X-115509Y-65287D01*
X-118874Y-58940D01*
X-121890Y-52419D01*
X-124548Y-45745D01*
X-126842Y-38936D01*
X-128763Y-32014D01*
X-130307Y-24998D01*
X-131469Y-17908D01*
X-132246Y-10766D01*
X-132635Y-3592D01*
X-132635Y3592D01*
X-132246Y10766D01*
X-131469Y17908D01*
X-130307Y24998D01*
X-128763Y32014D01*
X-126842Y38937D01*
X-124548Y45745D01*
X-121890Y52419D01*
X-118874Y58940D01*
X-115509Y65287D01*
X-111806Y71444D01*
X-107775Y77391D01*
X-103429Y83111D01*
X-98779Y88587D01*
X-93839Y93804D01*
X-88624Y98745D01*
X-83150Y103398D01*
X-77431Y107746D01*
X-71486Y111779D01*
X-65331Y115485D01*
X-58985Y118852D01*
X-52465Y121870D01*
X-45792Y124531D01*
X-38984Y126827D01*
X-32063Y128751D01*
X-25047Y130298D01*
X-17957Y131463D01*
X-10816Y132242D01*
X-3642Y132633D01*
X3542Y132636D01*
X10716Y132250D01*
D02*
G37*
%LPC*%
G36*
X-500Y128432D02*
X-2132Y128304D01*
X-3724Y127922D01*
X-5236Y127295D01*
X-6632Y126440D01*
X-7877Y125377D01*
X-8940Y124132D01*
X-9795Y122736D01*
X-10422Y121224D01*
X-10804Y119632D01*
X-10932Y118000D01*
X-10804Y116368D01*
X-10422Y114776D01*
X-9795Y113264D01*
X-8940Y111868D01*
X-7877Y110623D01*
X-6632Y109560D01*
X-5236Y108705D01*
X-3724Y108078D01*
X-2132Y107696D01*
X-500Y107568D01*
X1132Y107696D01*
X2724Y108078D01*
X4236Y108705D01*
X5632Y109560D01*
X6877Y110623D01*
X7940Y111868D01*
X8795Y113264D01*
X9422Y114776D01*
X9804Y116368D01*
X9932Y118000D01*
X9804Y119632D01*
X9422Y121224D01*
X8795Y122736D01*
X7940Y124132D01*
X6877Y125377D01*
X5632Y126440D01*
X4236Y127295D01*
X2724Y127922D01*
X1132Y128304D01*
X-500Y128432D01*
D02*
G37*
G36*
X5000Y96580D02*
X4073Y96458D01*
X3210Y96101D01*
X2468Y95532D01*
X1899Y94790D01*
X1542Y93927D01*
X1420Y93000D01*
X1542Y92073D01*
X1899Y91210D01*
X2468Y90468D01*
X3210Y89899D01*
X4073Y89542D01*
X5000Y89420D01*
X5927Y89542D01*
X6790Y89899D01*
X7532Y90468D01*
X8101Y91210D01*
X8458Y92073D01*
X8580Y93000D01*
X8458Y93927D01*
X8101Y94790D01*
X7532Y95532D01*
X6790Y96101D01*
X5927Y96458D01*
X5000Y96580D01*
D02*
G37*
G36*
X-5000D02*
X-5927Y96458D01*
X-6790Y96101D01*
X-7532Y95532D01*
X-8101Y94790D01*
X-8458Y93927D01*
X-8580Y93000D01*
X-8458Y92073D01*
X-8101Y91210D01*
X-7532Y90468D01*
X-6790Y89899D01*
X-5927Y89542D01*
X-5000Y89420D01*
X-4073Y89542D01*
X-3210Y89899D01*
X-2468Y90468D01*
X-1899Y91210D01*
X-1542Y92073D01*
X-1420Y93000D01*
X-1542Y93927D01*
X-1899Y94790D01*
X-2468Y95532D01*
X-3210Y96101D01*
X-4073Y96458D01*
X-5000Y96580D01*
D02*
G37*
G36*
X-15000D02*
X-15927Y96458D01*
X-16790Y96101D01*
X-17532Y95532D01*
X-18101Y94790D01*
X-18458Y93927D01*
X-18580Y93000D01*
X-18458Y92073D01*
X-18101Y91210D01*
X-17532Y90468D01*
X-16790Y89899D01*
X-15927Y89542D01*
X-15000Y89420D01*
X-14073Y89542D01*
X-13210Y89899D01*
X-12468Y90468D01*
X-11899Y91210D01*
X-11542Y92073D01*
X-11420Y93000D01*
X-11542Y93927D01*
X-11899Y94790D01*
X-12468Y95532D01*
X-13210Y96101D01*
X-14073Y96458D01*
X-15000Y96580D01*
D02*
G37*
G36*
X16575Y96588D02*
X13425D01*
X12655Y96435D01*
X12001Y95999D01*
X11565Y95345D01*
X11412Y94575D01*
Y91425D01*
X11565Y90655D01*
X12001Y90001D01*
X12655Y89565D01*
X13425Y89412D01*
X16575D01*
X17345Y89565D01*
X17999Y90001D01*
X18435Y90655D01*
X18588Y91425D01*
Y94575D01*
X18435Y95345D01*
X17999Y95999D01*
X17345Y96435D01*
X16575Y96588D01*
D02*
G37*
G36*
X22000Y73440D02*
Y72000D01*
X23440D01*
X23384Y72280D01*
X22942Y72942D01*
X22280Y73384D01*
X22000Y73440D01*
D02*
G37*
G36*
X21000D02*
X20720Y73384D01*
X20058Y72942D01*
X19616Y72280D01*
X19560Y72000D01*
X21000D01*
Y73440D01*
D02*
G37*
G36*
X23440Y71000D02*
X22000D01*
Y69560D01*
X22280Y69616D01*
X22942Y70058D01*
X23384Y70720D01*
X23440Y71000D01*
D02*
G37*
G36*
X21000D02*
X19560D01*
X19616Y70720D01*
X20058Y70058D01*
X20720Y69616D01*
X21000Y69560D01*
Y71000D01*
D02*
G37*
G36*
X-88500Y85295D02*
X-90313Y85116D01*
X-92057Y84587D01*
X-93664Y83728D01*
X-95072Y82572D01*
X-96228Y81164D01*
X-97087Y79557D01*
X-97616Y77813D01*
X-97795Y76000D01*
X-97616Y74187D01*
X-97087Y72443D01*
X-96228Y70836D01*
X-95072Y69428D01*
X-93664Y68272D01*
X-92057Y67413D01*
X-90313Y66884D01*
X-88500Y66705D01*
X-86687Y66884D01*
X-84943Y67413D01*
X-83336Y68272D01*
X-81928Y69428D01*
X-80772Y70836D01*
X-79913Y72443D01*
X-79384Y74187D01*
X-79205Y76000D01*
X-79384Y77813D01*
X-79913Y79557D01*
X-80772Y81164D01*
X-81928Y82572D01*
X-83336Y83728D01*
X-84943Y84587D01*
X-86687Y85116D01*
X-88500Y85295D01*
D02*
G37*
G36*
X44500Y72481D02*
X43599Y72362D01*
X42759Y72015D01*
X42039Y71461D01*
X41485Y70740D01*
X41138Y69901D01*
X41019Y69000D01*
X41138Y68099D01*
X41485Y67260D01*
X42039Y66539D01*
X42759Y65985D01*
X43599Y65638D01*
X44500Y65519D01*
X45401Y65638D01*
X46240Y65985D01*
X46961Y66539D01*
X47515Y67260D01*
X47862Y68099D01*
X47981Y69000D01*
X47862Y69901D01*
X47515Y70740D01*
X46961Y71461D01*
X46240Y72015D01*
X45401Y72362D01*
X44500Y72481D01*
D02*
G37*
G36*
X88500Y82795D02*
X86687Y82616D01*
X84943Y82087D01*
X83336Y81228D01*
X81928Y80072D01*
X80772Y78664D01*
X79913Y77057D01*
X79384Y75313D01*
X79205Y73500D01*
X79384Y71687D01*
X79913Y69943D01*
X80772Y68336D01*
X81928Y66928D01*
X83336Y65772D01*
X84943Y64913D01*
X86687Y64384D01*
X88500Y64205D01*
X90313Y64384D01*
X92057Y64913D01*
X93664Y65772D01*
X95072Y66928D01*
X96228Y68336D01*
X97087Y69943D01*
X97616Y71687D01*
X97795Y73500D01*
X97616Y75313D01*
X97087Y77057D01*
X96228Y78664D01*
X95072Y80072D01*
X93664Y81228D01*
X92057Y82087D01*
X90313Y82616D01*
X88500Y82795D01*
D02*
G37*
G36*
X34500Y65427D02*
X33954Y65319D01*
X33491Y65009D01*
X33181Y64546D01*
X33073Y64000D01*
X33181Y63454D01*
X33491Y62991D01*
X33954Y62681D01*
X34500Y62573D01*
X35046Y62681D01*
X35509Y62991D01*
X35819Y63454D01*
X35927Y64000D01*
X35819Y64546D01*
X35509Y65009D01*
X35046Y65319D01*
X34500Y65427D01*
D02*
G37*
G36*
X21000D02*
X20454Y65319D01*
X19991Y65009D01*
X19681Y64546D01*
X19573Y64000D01*
X19681Y63454D01*
X19991Y62991D01*
X20454Y62681D01*
X21000Y62573D01*
X21546Y62681D01*
X22009Y62991D01*
X22319Y63454D01*
X22427Y64000D01*
X22319Y64546D01*
X22009Y65009D01*
X21546Y65319D01*
X21000Y65427D01*
D02*
G37*
G36*
X-52961Y60448D02*
Y59008D01*
X-51521D01*
X-51577Y59288D01*
X-52019Y59950D01*
X-52680Y60392D01*
X-52961Y60448D01*
D02*
G37*
G36*
X-53961D02*
X-54241Y60392D01*
X-54902Y59950D01*
X-55345Y59288D01*
X-55400Y59008D01*
X-53961D01*
Y60448D01*
D02*
G37*
G36*
X-38000Y60427D02*
X-38546Y60319D01*
X-39009Y60009D01*
X-39319Y59546D01*
X-39427Y59000D01*
X-39319Y58454D01*
X-39009Y57991D01*
X-38546Y57681D01*
X-38000Y57573D01*
X-37454Y57681D01*
X-36991Y57991D01*
X-36681Y58454D01*
X-36573Y59000D01*
X-36681Y59546D01*
X-36991Y60009D01*
X-37454Y60319D01*
X-38000Y60427D01*
D02*
G37*
G36*
X21000Y58940D02*
Y57500D01*
X22440D01*
X22384Y57780D01*
X21942Y58442D01*
X21280Y58884D01*
X21000Y58940D01*
D02*
G37*
G36*
X20000D02*
X19720Y58884D01*
X19058Y58442D01*
X18616Y57780D01*
X18560Y57500D01*
X20000D01*
Y58940D01*
D02*
G37*
G36*
X-51521Y58008D02*
X-52961D01*
Y56568D01*
X-52680Y56624D01*
X-52019Y57066D01*
X-51577Y57727D01*
X-51521Y58008D01*
D02*
G37*
G36*
X-53961D02*
X-55400D01*
X-55345Y57727D01*
X-54902Y57066D01*
X-54241Y56624D01*
X-53961Y56568D01*
Y58008D01*
D02*
G37*
G36*
X22440Y56500D02*
X21000D01*
Y55060D01*
X21280Y55116D01*
X21942Y55558D01*
X22384Y56220D01*
X22440Y56500D01*
D02*
G37*
G36*
X20000D02*
X18560D01*
X18616Y56220D01*
X19058Y55558D01*
X19720Y55116D01*
X20000Y55060D01*
Y56500D01*
D02*
G37*
G36*
X109000Y54940D02*
Y53500D01*
X110440D01*
X110384Y53780D01*
X109942Y54442D01*
X109280Y54884D01*
X109000Y54940D01*
D02*
G37*
G36*
X108000D02*
X107720Y54884D01*
X107058Y54442D01*
X106616Y53780D01*
X106560Y53500D01*
X108000D01*
Y54940D01*
D02*
G37*
G36*
X34000D02*
Y53500D01*
X35440D01*
X35384Y53780D01*
X34942Y54442D01*
X34280Y54884D01*
X34000Y54940D01*
D02*
G37*
G36*
X33000D02*
X32720Y54884D01*
X32058Y54442D01*
X31616Y53780D01*
X31560Y53500D01*
X33000D01*
Y54940D01*
D02*
G37*
G36*
X-42461Y55435D02*
X-43007Y55327D01*
X-43470Y55017D01*
X-43779Y54554D01*
X-43888Y54008D01*
X-43779Y53462D01*
X-43470Y52999D01*
X-43007Y52689D01*
X-42461Y52580D01*
X-41914Y52689D01*
X-41451Y52999D01*
X-41142Y53462D01*
X-41033Y54008D01*
X-41142Y54554D01*
X-41451Y55017D01*
X-41914Y55327D01*
X-42461Y55435D01*
D02*
G37*
G36*
X110440Y52500D02*
X109000D01*
Y51060D01*
X109280Y51116D01*
X109942Y51558D01*
X110384Y52220D01*
X110440Y52500D01*
D02*
G37*
G36*
X108000D02*
X106560D01*
X106616Y52220D01*
X107058Y51558D01*
X107720Y51116D01*
X108000Y51060D01*
Y52500D01*
D02*
G37*
G36*
X35440D02*
X34000D01*
Y51060D01*
X34280Y51116D01*
X34942Y51558D01*
X35384Y52220D01*
X35440Y52500D01*
D02*
G37*
G36*
X33000D02*
X31560D01*
X31616Y52220D01*
X32058Y51558D01*
X32720Y51116D01*
X33000Y51060D01*
Y52500D01*
D02*
G37*
G36*
X21500Y52427D02*
X20954Y52319D01*
X20491Y52009D01*
X20181Y51546D01*
X20073Y51000D01*
X20181Y50454D01*
X20491Y49991D01*
X20954Y49681D01*
X21500Y49573D01*
X22046Y49681D01*
X22509Y49991D01*
X22819Y50454D01*
X22927Y51000D01*
X22819Y51546D01*
X22509Y52009D01*
X22046Y52319D01*
X21500Y52427D01*
D02*
G37*
G36*
X48500Y52481D02*
X47599Y52362D01*
X46760Y52015D01*
X46039Y51461D01*
X45485Y50740D01*
X45138Y49901D01*
X45019Y49000D01*
X45138Y48099D01*
X45485Y47260D01*
X46039Y46539D01*
X46760Y45985D01*
X47599Y45638D01*
X48500Y45519D01*
X49401Y45638D01*
X50240Y45985D01*
X50961Y46539D01*
X51515Y47260D01*
X51862Y48099D01*
X51981Y49000D01*
X51862Y49901D01*
X51515Y50740D01*
X50961Y51461D01*
X50240Y52015D01*
X49401Y52362D01*
X48500Y52481D01*
D02*
G37*
G36*
X40500D02*
X39599Y52362D01*
X38759Y52015D01*
X38039Y51461D01*
X37485Y50740D01*
X37138Y49901D01*
X37019Y49000D01*
X37138Y48099D01*
X37485Y47260D01*
X38039Y46539D01*
X38759Y45985D01*
X39599Y45638D01*
X40500Y45519D01*
X41401Y45638D01*
X42241Y45985D01*
X42961Y46539D01*
X43515Y47260D01*
X43862Y48099D01*
X43981Y49000D01*
X43862Y49901D01*
X43515Y50740D01*
X42961Y51461D01*
X42241Y52015D01*
X41401Y52362D01*
X40500Y52481D01*
D02*
G37*
G36*
X-2000Y47699D02*
X-2546Y47590D01*
X-3009Y47281D01*
X-3319Y46818D01*
X-3427Y46272D01*
X-3319Y45725D01*
X-3009Y45262D01*
X-2546Y44953D01*
X-2000Y44844D01*
X-1454Y44953D01*
X-991Y45262D01*
X-681Y45725D01*
X-573Y46272D01*
X-681Y46818D01*
X-991Y47281D01*
X-1454Y47590D01*
X-2000Y47699D01*
D02*
G37*
G36*
X88500Y42940D02*
Y41500D01*
X89940D01*
X89884Y41780D01*
X89442Y42442D01*
X88780Y42884D01*
X88500Y42940D01*
D02*
G37*
G36*
X87500D02*
X87220Y42884D01*
X86558Y42442D01*
X86116Y41780D01*
X86060Y41500D01*
X87500D01*
Y42940D01*
D02*
G37*
G36*
X89940Y40500D02*
X88500D01*
Y39060D01*
X88780Y39116D01*
X89442Y39558D01*
X89884Y40220D01*
X89940Y40500D01*
D02*
G37*
G36*
X87500D02*
X86060D01*
X86116Y40220D01*
X86558Y39558D01*
X87220Y39116D01*
X87500Y39060D01*
Y40500D01*
D02*
G37*
G36*
X14500Y37940D02*
Y36500D01*
X15940D01*
X15884Y36780D01*
X15442Y37442D01*
X14780Y37884D01*
X14500Y37940D01*
D02*
G37*
G36*
X13500D02*
X13220Y37884D01*
X12558Y37442D01*
X12116Y36780D01*
X12060Y36500D01*
X13500D01*
Y37940D01*
D02*
G37*
G36*
X-55000Y37927D02*
X-55546Y37819D01*
X-56009Y37509D01*
X-56319Y37046D01*
X-56427Y36500D01*
X-56319Y35954D01*
X-56009Y35491D01*
X-55546Y35181D01*
X-55000Y35073D01*
X-54454Y35181D01*
X-53991Y35491D01*
X-53681Y35954D01*
X-53573Y36500D01*
X-53681Y37046D01*
X-53991Y37509D01*
X-54454Y37819D01*
X-55000Y37927D01*
D02*
G37*
G36*
X15940Y35500D02*
X14500D01*
Y34060D01*
X14780Y34116D01*
X15442Y34558D01*
X15884Y35220D01*
X15940Y35500D01*
D02*
G37*
G36*
X13500D02*
X12060D01*
X12116Y35220D01*
X12558Y34558D01*
X13220Y34116D01*
X13500Y34060D01*
Y35500D01*
D02*
G37*
G36*
X-30500Y34184D02*
Y32744D01*
X-29060D01*
X-29116Y33024D01*
X-29558Y33686D01*
X-30220Y34128D01*
X-30500Y34184D01*
D02*
G37*
G36*
X-31500D02*
X-31780Y34128D01*
X-32442Y33686D01*
X-32884Y33024D01*
X-32940Y32744D01*
X-31500D01*
Y34184D01*
D02*
G37*
G36*
X98000Y33940D02*
Y32500D01*
X99440D01*
X99384Y32780D01*
X98942Y33442D01*
X98280Y33884D01*
X98000Y33940D01*
D02*
G37*
G36*
X97000D02*
X96720Y33884D01*
X96058Y33442D01*
X95616Y32780D01*
X95560Y32500D01*
X97000D01*
Y33940D01*
D02*
G37*
G36*
X-1500Y33927D02*
X-2046Y33819D01*
X-2509Y33509D01*
X-2819Y33046D01*
X-2927Y32500D01*
X-2819Y31954D01*
X-2509Y31491D01*
X-2046Y31181D01*
X-1500Y31073D01*
X-954Y31181D01*
X-491Y31491D01*
X-181Y31954D01*
X-73Y32500D01*
X-181Y33046D01*
X-491Y33509D01*
X-954Y33819D01*
X-1500Y33927D01*
D02*
G37*
G36*
X-29060Y31744D02*
X-30500D01*
Y30304D01*
X-30220Y30360D01*
X-29558Y30802D01*
X-29116Y31464D01*
X-29060Y31744D01*
D02*
G37*
G36*
X-31500D02*
X-32940D01*
X-32884Y31464D01*
X-32442Y30802D01*
X-31780Y30360D01*
X-31500Y30304D01*
Y31744D01*
D02*
G37*
G36*
X99440Y31500D02*
X98000D01*
Y30060D01*
X98280Y30116D01*
X98942Y30558D01*
X99384Y31220D01*
X99440Y31500D01*
D02*
G37*
G36*
X97000D02*
X95560D01*
X95616Y31220D01*
X96058Y30558D01*
X96720Y30116D01*
X97000Y30060D01*
Y31500D01*
D02*
G37*
G36*
X-63000Y31440D02*
Y30000D01*
X-61560D01*
X-61616Y30280D01*
X-62058Y30942D01*
X-62720Y31384D01*
X-63000Y31440D01*
D02*
G37*
G36*
X-64000D02*
X-64280Y31384D01*
X-64942Y30942D01*
X-65384Y30280D01*
X-65440Y30000D01*
X-64000D01*
Y31440D01*
D02*
G37*
G36*
X-61560Y29000D02*
X-63000D01*
Y27560D01*
X-62720Y27616D01*
X-62058Y28058D01*
X-61616Y28720D01*
X-61560Y29000D01*
D02*
G37*
G36*
X-64000D02*
X-65440D01*
X-65384Y28720D01*
X-64942Y28058D01*
X-64280Y27616D01*
X-64000Y27560D01*
Y29000D01*
D02*
G37*
G36*
X-14500Y27940D02*
Y26500D01*
X-13060D01*
X-13116Y26780D01*
X-13558Y27442D01*
X-14220Y27884D01*
X-14500Y27940D01*
D02*
G37*
G36*
X-15500D02*
X-15780Y27884D01*
X-16442Y27442D01*
X-16884Y26780D01*
X-16940Y26500D01*
X-15500D01*
Y27940D01*
D02*
G37*
G36*
X13748Y28443D02*
X13202Y28335D01*
X12739Y28025D01*
X12429Y27562D01*
X12321Y27016D01*
X12429Y26469D01*
X12739Y26006D01*
X13202Y25697D01*
X13748Y25588D01*
X14294Y25697D01*
X14757Y26006D01*
X15067Y26469D01*
X15176Y27016D01*
X15067Y27562D01*
X14757Y28025D01*
X14294Y28335D01*
X13748Y28443D01*
D02*
G37*
G36*
X121000Y26940D02*
Y25500D01*
X122440D01*
X122384Y25780D01*
X121942Y26442D01*
X121280Y26884D01*
X121000Y26940D01*
D02*
G37*
G36*
X120000D02*
X119720Y26884D01*
X119058Y26442D01*
X118616Y25780D01*
X118560Y25500D01*
X120000D01*
Y26940D01*
D02*
G37*
G36*
X-30500Y27672D02*
X-31046Y27563D01*
X-31509Y27253D01*
X-31819Y26790D01*
X-31927Y26244D01*
X-31819Y25698D01*
X-31509Y25235D01*
X-31046Y24925D01*
X-30500Y24817D01*
X-29954Y24925D01*
X-29491Y25235D01*
X-29181Y25698D01*
X-29073Y26244D01*
X-29181Y26790D01*
X-29491Y27253D01*
X-29954Y27563D01*
X-30500Y27672D01*
D02*
G37*
G36*
X-13060Y25500D02*
X-14500D01*
Y24060D01*
X-14220Y24116D01*
X-13558Y24558D01*
X-13116Y25220D01*
X-13060Y25500D01*
D02*
G37*
G36*
X-15500D02*
X-16940D01*
X-16884Y25220D01*
X-16442Y24558D01*
X-15780Y24116D01*
X-15500Y24060D01*
Y25500D01*
D02*
G37*
G36*
X122440Y24500D02*
X121000D01*
Y23060D01*
X121280Y23116D01*
X121942Y23558D01*
X122384Y24220D01*
X122440Y24500D01*
D02*
G37*
G36*
X120000D02*
X118560D01*
X118616Y24220D01*
X119058Y23558D01*
X119720Y23116D01*
X120000Y23060D01*
Y24500D01*
D02*
G37*
G36*
X19000Y24427D02*
X18454Y24319D01*
X17991Y24009D01*
X17681Y23546D01*
X17573Y23000D01*
X17681Y22454D01*
X17991Y21991D01*
X18454Y21681D01*
X19000Y21573D01*
X19546Y21681D01*
X20009Y21991D01*
X20319Y22454D01*
X20427Y23000D01*
X20319Y23546D01*
X20009Y24009D01*
X19546Y24319D01*
X19000Y24427D01*
D02*
G37*
G36*
X106315Y21268D02*
Y16835D01*
X110749D01*
X110644Y17629D01*
X110145Y18834D01*
X109350Y19870D01*
X108315Y20664D01*
X107109Y21164D01*
X106315Y21268D01*
D02*
G37*
G36*
X105315D02*
X104521Y21164D01*
X103315Y20664D01*
X102280Y19870D01*
X101485Y18834D01*
X100986Y17629D01*
X100881Y16835D01*
X105315D01*
Y21268D01*
D02*
G37*
G36*
X121276D02*
Y16835D01*
X125709D01*
X125605Y17629D01*
X125105Y18834D01*
X124311Y19870D01*
X123275Y20664D01*
X122070Y21164D01*
X121276Y21268D01*
D02*
G37*
G36*
X120276Y21268D02*
X119482Y21164D01*
X118276Y20664D01*
X117240Y19870D01*
X116446Y18834D01*
X115946Y17629D01*
X115842Y16835D01*
X120276D01*
Y21268D01*
D02*
G37*
G36*
X2500Y19427D02*
X1954Y19319D01*
X1491Y19009D01*
X1181Y18546D01*
X1073Y18000D01*
X1181Y17454D01*
X1491Y16991D01*
X1954Y16681D01*
X2500Y16573D01*
X3046Y16681D01*
X3509Y16991D01*
X3819Y17454D01*
X3927Y18000D01*
X3819Y18546D01*
X3509Y19009D01*
X3046Y19319D01*
X2500Y19427D01*
D02*
G37*
G36*
X-29000Y17940D02*
Y16500D01*
X-27560D01*
X-27616Y16780D01*
X-28058Y17442D01*
X-28720Y17884D01*
X-29000Y17940D01*
D02*
G37*
G36*
X-30000D02*
X-30280Y17884D01*
X-30942Y17442D01*
X-31384Y16780D01*
X-31440Y16500D01*
X-30000D01*
Y17940D01*
D02*
G37*
G36*
X-71000Y17440D02*
Y16000D01*
X-69560D01*
X-69616Y16280D01*
X-70058Y16942D01*
X-70720Y17384D01*
X-71000Y17440D01*
D02*
G37*
G36*
X-72000D02*
X-72280Y17384D01*
X-72942Y16942D01*
X-73384Y16280D01*
X-73440Y16000D01*
X-72000D01*
Y17440D01*
D02*
G37*
G36*
X-27560Y15500D02*
X-29000D01*
Y14060D01*
X-28720Y14116D01*
X-28058Y14558D01*
X-27616Y15220D01*
X-27560Y15500D01*
D02*
G37*
G36*
X-30000D02*
X-31440D01*
X-31384Y15220D01*
X-30942Y14558D01*
X-30280Y14116D01*
X-30000Y14060D01*
Y15500D01*
D02*
G37*
G36*
X-69560Y15000D02*
X-71000D01*
Y13560D01*
X-70720Y13616D01*
X-70058Y14058D01*
X-69616Y14720D01*
X-69560Y15000D01*
D02*
G37*
G36*
X-72000D02*
X-73440D01*
X-73384Y14720D01*
X-72942Y14058D01*
X-72280Y13616D01*
X-72000Y13560D01*
Y15000D01*
D02*
G37*
G36*
X125709Y15835D02*
X121276D01*
Y11401D01*
X122070Y11506D01*
X123275Y12005D01*
X124311Y12799D01*
X125105Y13835D01*
X125605Y15041D01*
X125709Y15835D01*
D02*
G37*
G36*
X110749Y15835D02*
X106315D01*
Y11401D01*
X107109Y11506D01*
X108315Y12005D01*
X109350Y12799D01*
X110145Y13835D01*
X110644Y15041D01*
X110749Y15835D01*
D02*
G37*
G36*
X105315D02*
X100881D01*
X100986Y15041D01*
X101485Y13835D01*
X102280Y12799D01*
X103315Y12005D01*
X104521Y11506D01*
X105315Y11401D01*
Y15835D01*
D02*
G37*
G36*
X120276Y15835D02*
X115842D01*
X115946Y15041D01*
X116446Y13835D01*
X117240Y12799D01*
X118276Y12005D01*
X119482Y11506D01*
X120276Y11401D01*
Y15835D01*
D02*
G37*
G36*
X-21240Y12679D02*
X-21786Y12571D01*
X-22250Y12261D01*
X-22559Y11798D01*
X-22668Y11252D01*
X-22559Y10706D01*
X-22250Y10243D01*
X-21786Y9933D01*
X-21240Y9825D01*
X-20694Y9933D01*
X-20231Y10243D01*
X-19921Y10706D01*
X-19813Y11252D01*
X-19921Y11798D01*
X-20231Y12261D01*
X-20694Y12571D01*
X-21240Y12679D01*
D02*
G37*
G36*
X-30240Y7692D02*
Y6252D01*
X-28800D01*
X-28856Y6532D01*
X-29298Y7194D01*
X-29960Y7636D01*
X-30240Y7692D01*
D02*
G37*
G36*
X-31240D02*
X-31521Y7636D01*
X-32182Y7194D01*
X-32624Y6532D01*
X-32680Y6252D01*
X-31240D01*
Y7692D01*
D02*
G37*
G36*
X89556Y7384D02*
Y5944D01*
X90995D01*
X90940Y6225D01*
X90498Y6886D01*
X89836Y7328D01*
X89556Y7384D01*
D02*
G37*
G36*
X88556D02*
X88275Y7328D01*
X87614Y6886D01*
X87172Y6225D01*
X87116Y5944D01*
X88556D01*
Y7384D01*
D02*
G37*
G36*
X2000Y5440D02*
Y4000D01*
X3440D01*
X3384Y4280D01*
X2942Y4942D01*
X2280Y5384D01*
X2000Y5440D01*
D02*
G37*
G36*
X1000D02*
X720Y5384D01*
X58Y4942D01*
X-384Y4280D01*
X-440Y4000D01*
X1000D01*
Y5440D01*
D02*
G37*
G36*
X-28800Y5252D02*
X-30240D01*
Y3812D01*
X-29960Y3868D01*
X-29298Y4310D01*
X-28856Y4972D01*
X-28800Y5252D01*
D02*
G37*
G36*
X-31240D02*
X-32680D01*
X-32624Y4972D01*
X-32182Y4310D01*
X-31521Y3868D01*
X-31240Y3812D01*
Y5252D01*
D02*
G37*
G36*
X-14500Y6427D02*
X-15046Y6319D01*
X-15509Y6009D01*
X-15819Y5546D01*
X-15927Y5000D01*
X-15819Y4454D01*
X-15509Y3991D01*
X-15046Y3681D01*
X-14500Y3573D01*
X-13954Y3681D01*
X-13491Y3991D01*
X-13181Y4454D01*
X-13073Y5000D01*
X-13181Y5546D01*
X-13491Y6009D01*
X-13954Y6319D01*
X-14500Y6427D01*
D02*
G37*
G36*
X90995Y4944D02*
X89556D01*
Y3505D01*
X89836Y3560D01*
X90498Y4002D01*
X90940Y4664D01*
X90995Y4944D01*
D02*
G37*
G36*
X88556D02*
X87116D01*
X87172Y4664D01*
X87614Y4002D01*
X88275Y3560D01*
X88556Y3505D01*
Y4944D01*
D02*
G37*
G36*
X3440Y3000D02*
X2000D01*
Y1560D01*
X2280Y1616D01*
X2942Y2058D01*
X3384Y2720D01*
X3440Y3000D01*
D02*
G37*
G36*
X1000D02*
X-440D01*
X-384Y2720D01*
X58Y2058D01*
X720Y1616D01*
X1000Y1560D01*
Y3000D01*
D02*
G37*
G36*
X-66492Y3420D02*
X-67038Y3311D01*
X-67501Y3001D01*
X-67811Y2538D01*
X-67920Y1992D01*
X-67811Y1446D01*
X-67501Y983D01*
X-67038Y673D01*
X-66492Y565D01*
X-65946Y673D01*
X-65483Y983D01*
X-65173Y1446D01*
X-65065Y1992D01*
X-65173Y2538D01*
X-65483Y3001D01*
X-65946Y3311D01*
X-66492Y3420D01*
D02*
G37*
G36*
X-103500Y1940D02*
Y500D01*
X-102060D01*
X-102116Y780D01*
X-102558Y1442D01*
X-103220Y1884D01*
X-103500Y1940D01*
D02*
G37*
G36*
X-104500D02*
X-104780Y1884D01*
X-105442Y1442D01*
X-105884Y780D01*
X-105940Y500D01*
X-104500D01*
Y1940D01*
D02*
G37*
G36*
X2000Y857D02*
Y-583D01*
X3440D01*
X3384Y-302D01*
X2942Y359D01*
X2280Y801D01*
X2000Y857D01*
D02*
G37*
G36*
X1000D02*
X720Y801D01*
X58Y359D01*
X-384Y-302D01*
X-440Y-583D01*
X1000D01*
Y857D01*
D02*
G37*
G36*
X-102060Y-500D02*
X-103500D01*
Y-1940D01*
X-103220Y-1884D01*
X-102558Y-1442D01*
X-102116Y-780D01*
X-102060Y-500D01*
D02*
G37*
G36*
X-104500D02*
X-105940D01*
X-105884Y-780D01*
X-105442Y-1442D01*
X-104780Y-1884D01*
X-104500Y-1940D01*
Y-500D01*
D02*
G37*
G36*
X3440Y-1583D02*
X2000D01*
Y-3022D01*
X2280Y-2967D01*
X2942Y-2525D01*
X3384Y-1863D01*
X3440Y-1583D01*
D02*
G37*
G36*
X1000D02*
X-440D01*
X-384Y-1863D01*
X58Y-2525D01*
X720Y-2967D01*
X1000Y-3022D01*
Y-1583D01*
D02*
G37*
G36*
X87700Y-6060D02*
Y-7500D01*
X89140D01*
X89084Y-7220D01*
X88642Y-6558D01*
X87980Y-6116D01*
X87700Y-6060D01*
D02*
G37*
G36*
X86700D02*
X86420Y-6116D01*
X85758Y-6558D01*
X85316Y-7220D01*
X85260Y-7500D01*
X86700D01*
Y-6060D01*
D02*
G37*
G36*
X-15500Y-5073D02*
X-16046Y-5181D01*
X-16509Y-5491D01*
X-16819Y-5954D01*
X-16927Y-6500D01*
X-16819Y-7046D01*
X-16509Y-7509D01*
X-16046Y-7819D01*
X-15500Y-7927D01*
X-14954Y-7819D01*
X-14491Y-7509D01*
X-14181Y-7046D01*
X-14073Y-6500D01*
X-14181Y-5954D01*
X-14491Y-5491D01*
X-14954Y-5181D01*
X-15500Y-5073D01*
D02*
G37*
G36*
X89140Y-8500D02*
X87700D01*
Y-9940D01*
X87980Y-9884D01*
X88642Y-9442D01*
X89084Y-8780D01*
X89140Y-8500D01*
D02*
G37*
G36*
X86700D02*
X85260D01*
X85316Y-8780D01*
X85758Y-9442D01*
X86420Y-9884D01*
X86700Y-9940D01*
Y-8500D01*
D02*
G37*
G36*
X11500Y-10155D02*
X10954Y-10264D01*
X10491Y-10573D01*
X10181Y-11036D01*
X10073Y-11583D01*
X10181Y-12129D01*
X10491Y-12592D01*
X10954Y-12901D01*
X11500Y-13010D01*
X12046Y-12901D01*
X12509Y-12592D01*
X12819Y-12129D01*
X12927Y-11583D01*
X12819Y-11036D01*
X12509Y-10573D01*
X12046Y-10264D01*
X11500Y-10155D01*
D02*
G37*
G36*
X-126500Y-12060D02*
Y-13500D01*
X-125060D01*
X-125116Y-13220D01*
X-125558Y-12558D01*
X-126220Y-12116D01*
X-126500Y-12060D01*
D02*
G37*
G36*
X-127500D02*
X-127780Y-12116D01*
X-128442Y-12558D01*
X-128884Y-13220D01*
X-128940Y-13500D01*
X-127500D01*
Y-12060D01*
D02*
G37*
G36*
X-125060Y-14500D02*
X-126500D01*
Y-15940D01*
X-126220Y-15884D01*
X-125558Y-15442D01*
X-125116Y-14780D01*
X-125060Y-14500D01*
D02*
G37*
G36*
X-127500D02*
X-128940D01*
X-128884Y-14780D01*
X-128442Y-15442D01*
X-127780Y-15884D01*
X-127500Y-15940D01*
Y-14500D01*
D02*
G37*
G36*
X88000Y-15560D02*
Y-17000D01*
X89440D01*
X89384Y-16720D01*
X88942Y-16058D01*
X88280Y-15616D01*
X88000Y-15560D01*
D02*
G37*
G36*
X87000D02*
X86720Y-15616D01*
X86058Y-16058D01*
X85616Y-16720D01*
X85560Y-17000D01*
X87000D01*
Y-15560D01*
D02*
G37*
G36*
X-59000D02*
Y-17000D01*
X-57560D01*
X-57616Y-16720D01*
X-58058Y-16058D01*
X-58720Y-15616D01*
X-59000Y-15560D01*
D02*
G37*
G36*
X-60000D02*
X-60280Y-15616D01*
X-60942Y-16058D01*
X-61384Y-16720D01*
X-61440Y-17000D01*
X-60000D01*
Y-15560D01*
D02*
G37*
G36*
X106315Y-12747D02*
Y-17181D01*
X110749D01*
X110644Y-16387D01*
X110145Y-15181D01*
X109350Y-14146D01*
X108315Y-13351D01*
X107109Y-12852D01*
X106315Y-12747D01*
D02*
G37*
G36*
X105315D02*
X104521Y-12852D01*
X103315Y-13351D01*
X102280Y-14146D01*
X101485Y-15181D01*
X100986Y-16387D01*
X100881Y-17181D01*
X105315D01*
Y-12747D01*
D02*
G37*
G36*
X121276D02*
Y-17181D01*
X125709D01*
X125605Y-16387D01*
X125105Y-15181D01*
X124311Y-14146D01*
X123275Y-13351D01*
X122070Y-12852D01*
X121276Y-12747D01*
D02*
G37*
G36*
X120276Y-12747D02*
X119482Y-12852D01*
X118276Y-13351D01*
X117240Y-14146D01*
X116446Y-15181D01*
X115946Y-16387D01*
X115842Y-17181D01*
X120276D01*
Y-12747D01*
D02*
G37*
G36*
X89440Y-18000D02*
X88000D01*
Y-19440D01*
X88280Y-19384D01*
X88942Y-18942D01*
X89384Y-18280D01*
X89440Y-18000D01*
D02*
G37*
G36*
X87000D02*
X85560D01*
X85616Y-18280D01*
X86058Y-18942D01*
X86720Y-19384D01*
X87000Y-19440D01*
Y-18000D01*
D02*
G37*
G36*
X-57560D02*
X-59000D01*
Y-19440D01*
X-58720Y-19384D01*
X-58058Y-18942D01*
X-57616Y-18280D01*
X-57560Y-18000D01*
D02*
G37*
G36*
X-60000D02*
X-61440D01*
X-61384Y-18280D01*
X-60942Y-18942D01*
X-60280Y-19384D01*
X-60000Y-19440D01*
Y-18000D01*
D02*
G37*
G36*
X125709Y-18181D02*
X121276D01*
Y-22615D01*
X122070Y-22510D01*
X123275Y-22011D01*
X124311Y-21216D01*
X125105Y-20181D01*
X125605Y-18975D01*
X125709Y-18181D01*
D02*
G37*
G36*
X110749Y-18181D02*
X106315D01*
Y-22615D01*
X107109Y-22510D01*
X108315Y-22011D01*
X109350Y-21216D01*
X110145Y-20181D01*
X110644Y-18975D01*
X110749Y-18181D01*
D02*
G37*
G36*
X105315D02*
X100881D01*
X100986Y-18975D01*
X101485Y-20181D01*
X102280Y-21216D01*
X103315Y-22011D01*
X104521Y-22510D01*
X105315Y-22615D01*
Y-18181D01*
D02*
G37*
G36*
X120276Y-18181D02*
X115842D01*
X115946Y-18975D01*
X116446Y-20181D01*
X117240Y-21216D01*
X118276Y-22011D01*
X119482Y-22510D01*
X120276Y-22615D01*
Y-18181D01*
D02*
G37*
G36*
X17543Y-24560D02*
Y-26000D01*
X18983D01*
X18927Y-25720D01*
X18485Y-25058D01*
X17824Y-24616D01*
X17543Y-24560D01*
D02*
G37*
G36*
X16543D02*
X16263Y-24616D01*
X15601Y-25058D01*
X15159Y-25720D01*
X15104Y-26000D01*
X16543D01*
Y-24560D01*
D02*
G37*
G36*
X121500Y-25060D02*
Y-26500D01*
X122940D01*
X122884Y-26220D01*
X122442Y-25558D01*
X121780Y-25116D01*
X121500Y-25060D01*
D02*
G37*
G36*
X120500D02*
X120220Y-25116D01*
X119558Y-25558D01*
X119116Y-26220D01*
X119060Y-26500D01*
X120500D01*
Y-25060D01*
D02*
G37*
G36*
X93500Y-24573D02*
X92954Y-24681D01*
X92491Y-24991D01*
X92181Y-25454D01*
X92073Y-26000D01*
X92181Y-26546D01*
X92491Y-27009D01*
X92954Y-27319D01*
X93500Y-27427D01*
X94046Y-27319D01*
X94509Y-27009D01*
X94819Y-26546D01*
X94927Y-26000D01*
X94819Y-25454D01*
X94509Y-24991D01*
X94046Y-24681D01*
X93500Y-24573D01*
D02*
G37*
G36*
X18983Y-27000D02*
X17543D01*
Y-28440D01*
X17824Y-28384D01*
X18485Y-27942D01*
X18927Y-27280D01*
X18983Y-27000D01*
D02*
G37*
G36*
X16543D02*
X15104D01*
X15159Y-27280D01*
X15601Y-27942D01*
X16263Y-28384D01*
X16543Y-28440D01*
Y-27000D01*
D02*
G37*
G36*
X122940Y-27500D02*
X121500D01*
Y-28940D01*
X121780Y-28884D01*
X122442Y-28442D01*
X122884Y-27780D01*
X122940Y-27500D01*
D02*
G37*
G36*
X120500D02*
X119060D01*
X119116Y-27780D01*
X119558Y-28442D01*
X120220Y-28884D01*
X120500Y-28940D01*
Y-27500D01*
D02*
G37*
G36*
X-103000Y-29560D02*
Y-31000D01*
X-101560D01*
X-101616Y-30720D01*
X-102058Y-30058D01*
X-102720Y-29616D01*
X-103000Y-29560D01*
D02*
G37*
G36*
X-104000D02*
X-104280Y-29616D01*
X-104942Y-30058D01*
X-105384Y-30720D01*
X-105440Y-31000D01*
X-104000D01*
Y-29560D01*
D02*
G37*
G36*
X-101560Y-32000D02*
X-103000D01*
Y-33440D01*
X-102720Y-33384D01*
X-102058Y-32942D01*
X-101616Y-32280D01*
X-101560Y-32000D01*
D02*
G37*
G36*
X-104000D02*
X-105440D01*
X-105384Y-32280D01*
X-104942Y-32942D01*
X-104280Y-33384D01*
X-104000Y-33440D01*
Y-32000D01*
D02*
G37*
G36*
X101500Y-33073D02*
X100954Y-33181D01*
X100491Y-33491D01*
X100181Y-33954D01*
X100073Y-34500D01*
X100181Y-35046D01*
X100491Y-35509D01*
X100954Y-35819D01*
X101500Y-35927D01*
X102046Y-35819D01*
X102509Y-35509D01*
X102819Y-35046D01*
X102927Y-34500D01*
X102819Y-33954D01*
X102509Y-33491D01*
X102046Y-33181D01*
X101500Y-33073D01*
D02*
G37*
G36*
X77500Y-36060D02*
Y-37500D01*
X78940D01*
X78884Y-37220D01*
X78442Y-36558D01*
X77780Y-36116D01*
X77500Y-36060D01*
D02*
G37*
G36*
X76500D02*
X76220Y-36116D01*
X75558Y-36558D01*
X75116Y-37220D01*
X75060Y-37500D01*
X76500D01*
Y-36060D01*
D02*
G37*
G36*
X18043D02*
Y-37500D01*
X19483D01*
X19427Y-37220D01*
X18985Y-36558D01*
X18324Y-36116D01*
X18043Y-36060D01*
D02*
G37*
G36*
X17043D02*
X16763Y-36116D01*
X16101Y-36558D01*
X15659Y-37220D01*
X15604Y-37500D01*
X17043D01*
Y-36060D01*
D02*
G37*
G36*
X78940Y-38500D02*
X77500D01*
Y-39940D01*
X77780Y-39884D01*
X78442Y-39442D01*
X78884Y-38780D01*
X78940Y-38500D01*
D02*
G37*
G36*
X76500D02*
X75060D01*
X75116Y-38780D01*
X75558Y-39442D01*
X76220Y-39884D01*
X76500Y-39940D01*
Y-38500D01*
D02*
G37*
G36*
X19483D02*
X18043D01*
Y-39940D01*
X18324Y-39884D01*
X18985Y-39442D01*
X19427Y-38780D01*
X19483Y-38500D01*
D02*
G37*
G36*
X17043D02*
X15604D01*
X15659Y-38780D01*
X16101Y-39442D01*
X16763Y-39884D01*
X17043Y-39940D01*
Y-38500D01*
D02*
G37*
G36*
X88000Y-66560D02*
Y-68000D01*
X89440D01*
X89384Y-67720D01*
X88942Y-67058D01*
X88280Y-66616D01*
X88000Y-66560D01*
D02*
G37*
G36*
X87000D02*
X86720Y-66616D01*
X86058Y-67058D01*
X85616Y-67720D01*
X85560Y-68000D01*
X87000D01*
Y-66560D01*
D02*
G37*
G36*
X89440Y-69000D02*
X88000D01*
Y-70440D01*
X88280Y-70384D01*
X88942Y-69942D01*
X89384Y-69280D01*
X89440Y-69000D01*
D02*
G37*
G36*
X87000D02*
X85560D01*
X85616Y-69280D01*
X86058Y-69942D01*
X86720Y-70384D01*
X87000Y-70440D01*
Y-69000D01*
D02*
G37*
G36*
X-79000Y-77705D02*
X-80813Y-77884D01*
X-82557Y-78413D01*
X-84164Y-79272D01*
X-85572Y-80428D01*
X-86728Y-81836D01*
X-87587Y-83443D01*
X-88116Y-85187D01*
X-88295Y-87000D01*
X-88116Y-88813D01*
X-87587Y-90557D01*
X-86728Y-92164D01*
X-85572Y-93572D01*
X-84164Y-94728D01*
X-82557Y-95587D01*
X-80813Y-96116D01*
X-79000Y-96295D01*
X-77187Y-96116D01*
X-75443Y-95587D01*
X-73836Y-94728D01*
X-72428Y-93572D01*
X-71272Y-92164D01*
X-70413Y-90557D01*
X-69884Y-88813D01*
X-69705Y-87000D01*
X-69884Y-85187D01*
X-70413Y-83443D01*
X-71272Y-81836D01*
X-72428Y-80428D01*
X-73836Y-79272D01*
X-75443Y-78413D01*
X-77187Y-77884D01*
X-79000Y-77705D01*
D02*
G37*
G36*
X74500Y-79705D02*
X72687Y-79884D01*
X70943Y-80413D01*
X69336Y-81272D01*
X67928Y-82428D01*
X66772Y-83836D01*
X65913Y-85443D01*
X65384Y-87187D01*
X65205Y-89000D01*
X65384Y-90813D01*
X65913Y-92557D01*
X66772Y-94164D01*
X67928Y-95572D01*
X69336Y-96728D01*
X70943Y-97587D01*
X72687Y-98116D01*
X74500Y-98295D01*
X76313Y-98116D01*
X78057Y-97587D01*
X79664Y-96728D01*
X81072Y-95572D01*
X82228Y-94164D01*
X83087Y-92557D01*
X83616Y-90813D01*
X83795Y-89000D01*
X83616Y-87187D01*
X83087Y-85443D01*
X82228Y-83836D01*
X81072Y-82428D01*
X79664Y-81272D01*
X78057Y-80413D01*
X76313Y-79884D01*
X74500Y-79705D01*
D02*
G37*
%LPD*%
D34*
X105815Y16335D02*
D03*
X120776D02*
D03*
Y-17681D02*
D03*
X105815D02*
D03*
D35*
X-500Y118000D02*
D03*
D36*
X88500Y73500D02*
D03*
X-88500Y76000D02*
D03*
X-79000Y-87000D02*
D03*
X74500Y-89000D02*
D03*
D37*
X48500Y49000D02*
D03*
X40500D02*
D03*
X44500Y69000D02*
D03*
D38*
X5000Y93000D02*
D03*
X-5000D02*
D03*
X-15000D02*
D03*
D39*
X15000D02*
D03*
D42*
X-15500Y-6500D02*
D03*
X-14500Y5000D02*
D03*
X19000Y23000D02*
D03*
X2500Y18000D02*
D03*
X1500Y3500D02*
D03*
X14000Y36000D02*
D03*
X-127000Y-14000D02*
D03*
X-103500Y-31500D02*
D03*
X-59500Y-17500D02*
D03*
X-104000Y0D02*
D03*
X-30740Y5752D02*
D03*
X1500Y-1083D02*
D03*
X-71500Y15500D02*
D03*
X-63500Y29500D02*
D03*
X-53461Y58508D02*
D03*
X-29500Y16000D02*
D03*
X-31000Y32244D02*
D03*
X-15000Y26000D02*
D03*
X77000Y-38000D02*
D03*
X17543D02*
D03*
X87500Y-68500D02*
D03*
X17043Y-26500D02*
D03*
X87500Y-17500D02*
D03*
X87200Y-8000D02*
D03*
X89056Y5444D02*
D03*
X121000Y-27000D02*
D03*
X88000Y41000D02*
D03*
X20500Y57000D02*
D03*
X33500Y53000D02*
D03*
X120500Y25000D02*
D03*
X97500Y32000D02*
D03*
X108500Y53000D02*
D03*
X21500Y71500D02*
D03*
X-1500Y32500D02*
D03*
X21000Y64000D02*
D03*
X13748Y27016D02*
D03*
X-38000Y59000D02*
D03*
X34500Y64000D02*
D03*
X21500Y51000D02*
D03*
X-2000Y46272D02*
D03*
X11500Y-11583D02*
D03*
X101500Y-34500D02*
D03*
X93500Y-26000D02*
D03*
X-21240Y11252D02*
D03*
X-42461Y54008D02*
D03*
X-30500Y26244D02*
D03*
X-55000Y36500D02*
D03*
X-66492Y1992D02*
D03*
M02*
