G04*
G04 #@! TF.GenerationSoftware,Altium Limited,Altium Designer Develop,26.10.1 (6)*
G04*
G04 Layer_Physical_Order=3*
G04 Layer_Color=16440176*
G04 Board_Origin=40550000|29750000*
%FSLAX25Y25*%
%MOIN*%
G70*
G04*
G04 #@! TF.SameCoordinates,60A3A3B2-8CA2-48B1-86F7-AA12094F7120*
G04*
G04*
G04 #@! TF.FilePolarity,Positive*
G04*
G01*
G75*
%ADD34C,0.07913*%
%ADD35C,0.20000*%
%ADD36C,0.17700*%
%ADD37C,0.06102*%
%ADD38C,0.06299*%
G04:AMPARAMS|DCode=39|XSize=62.99mil|YSize=62.99mil|CornerRadius=15.75mil|HoleSize=0mil|Usage=FLASHONLY|Rotation=180.000|XOffset=0mil|YOffset=0mil|HoleType=Round|Shape=RoundedRectangle|*
%AMROUNDEDRECTD39*
21,1,0.06299,0.03150,0,0,180.0*
21,1,0.03150,0.06299,0,0,180.0*
1,1,0.03150,-0.01575,0.01575*
1,1,0.03150,0.01575,0.01575*
1,1,0.03150,0.01575,-0.01575*
1,1,0.03150,-0.01575,-0.01575*
%
%ADD39ROUNDEDRECTD39*%
%ADD40C,0.00780*%
%ADD42C,0.02000*%
G36*
X10716Y132250D02*
X17858Y131476D01*
X24949Y130317D01*
X31966Y128775D01*
X38889Y126856D01*
X45698Y124566D01*
X52373Y121910D01*
X58895Y118896D01*
X65244Y115534D01*
X71402Y111833D01*
X77350Y107805D01*
X83072Y103460D01*
X88550Y98812D01*
X93768Y93874D01*
X98712Y88661D01*
X103366Y83189D01*
X107717Y77472D01*
X111753Y71528D01*
X115460Y65374D01*
X118830Y59029D01*
X121850Y52511D01*
X124514Y45839D01*
X126812Y39032D01*
X128739Y32111D01*
X129485Y28733D01*
X129485Y-28734D01*
X128739Y-32111D01*
X126812Y-39032D01*
X124514Y-45839D01*
X121850Y-52511D01*
X118830Y-59029D01*
X115460Y-65374D01*
X111753Y-71528D01*
X107717Y-77472D01*
X103366Y-83189D01*
X98712Y-88662D01*
X93768Y-93874D01*
X88550Y-98812D01*
X83072Y-103460D01*
X77350Y-107805D01*
X71402Y-111833D01*
X65244Y-115534D01*
X58895Y-118896D01*
X52373Y-121910D01*
X45698Y-124566D01*
X38889Y-126857D01*
X31966Y-128775D01*
X24948Y-130317D01*
X17858Y-131476D01*
X10716Y-132250D01*
X3542Y-132636D01*
X-3642Y-132633D01*
X-10816Y-132242D01*
X-17957Y-131463D01*
X-25047Y-130298D01*
X-32063Y-128751D01*
X-38984Y-126827D01*
X-45792Y-124531D01*
X-52465Y-121870D01*
X-58985Y-118852D01*
X-65331Y-115485D01*
X-71486Y-111779D01*
X-77431Y-107746D01*
X-83150Y-103397D01*
X-88624Y-98745D01*
X-93839Y-93804D01*
X-98779Y-88587D01*
X-103429Y-83111D01*
X-107776Y-77391D01*
X-111806Y-71444D01*
X-115509Y-65287D01*
X-118874Y-58940D01*
X-121890Y-52419D01*
X-124548Y-45745D01*
X-126842Y-38936D01*
X-128763Y-32014D01*
X-130307Y-24998D01*
X-131469Y-17908D01*
X-132246Y-10766D01*
X-132635Y-3592D01*
X-132635Y3592D01*
X-132246Y10766D01*
X-131469Y17908D01*
X-130307Y24998D01*
X-128763Y32014D01*
X-126842Y38937D01*
X-124548Y45745D01*
X-121890Y52419D01*
X-118874Y58940D01*
X-115509Y65287D01*
X-111806Y71444D01*
X-107775Y77391D01*
X-103429Y83111D01*
X-98779Y88587D01*
X-93839Y93804D01*
X-88624Y98745D01*
X-83150Y103398D01*
X-77431Y107746D01*
X-71486Y111779D01*
X-65331Y115485D01*
X-58985Y118852D01*
X-52465Y121870D01*
X-45792Y124531D01*
X-38984Y126827D01*
X-32063Y128751D01*
X-25047Y130298D01*
X-17957Y131463D01*
X-10816Y132242D01*
X-3642Y132633D01*
X3542Y132636D01*
X10716Y132250D01*
D02*
G37*
%LPC*%
G36*
X0Y128995D02*
Y118500D01*
X10495D01*
X10398Y119726D01*
X9994Y121410D01*
X9331Y123009D01*
X8427Y124486D01*
X7302Y125802D01*
X5986Y126927D01*
X4509Y127831D01*
X2910Y128494D01*
X1226Y128898D01*
X0Y128995D01*
D02*
G37*
G36*
X-1000D02*
X-2226Y128898D01*
X-3910Y128494D01*
X-5509Y127831D01*
X-6986Y126927D01*
X-8302Y125802D01*
X-9427Y124486D01*
X-10331Y123009D01*
X-10994Y121410D01*
X-11398Y119726D01*
X-11495Y118500D01*
X-1000D01*
Y128995D01*
D02*
G37*
G36*
X10495Y117500D02*
X0D01*
Y107005D01*
X1226Y107102D01*
X2910Y107506D01*
X4509Y108169D01*
X5986Y109073D01*
X7302Y110198D01*
X8427Y111514D01*
X9331Y112991D01*
X9994Y114590D01*
X10398Y116274D01*
X10495Y117500D01*
D02*
G37*
G36*
X-1000D02*
X-11495D01*
X-11398Y116274D01*
X-10994Y114590D01*
X-10331Y112991D01*
X-9427Y111514D01*
X-8302Y110198D01*
X-6986Y109073D01*
X-5509Y108169D01*
X-3910Y107506D01*
X-2226Y107102D01*
X-1000Y107005D01*
Y117500D01*
D02*
G37*
G36*
X5000Y96580D02*
X4073Y96458D01*
X3210Y96101D01*
X2468Y95532D01*
X1899Y94790D01*
X1542Y93927D01*
X1420Y93000D01*
X1542Y92073D01*
X1899Y91210D01*
X2468Y90468D01*
X3210Y89899D01*
X4073Y89542D01*
X5000Y89420D01*
X5927Y89542D01*
X6790Y89899D01*
X7532Y90468D01*
X8101Y91210D01*
X8458Y92073D01*
X8580Y93000D01*
X8458Y93927D01*
X8101Y94790D01*
X7532Y95532D01*
X6790Y96101D01*
X5927Y96458D01*
X5000Y96580D01*
D02*
G37*
G36*
X-5000D02*
X-5927Y96458D01*
X-6790Y96101D01*
X-7532Y95532D01*
X-8101Y94790D01*
X-8458Y93927D01*
X-8580Y93000D01*
X-8458Y92073D01*
X-8101Y91210D01*
X-7532Y90468D01*
X-6790Y89899D01*
X-5927Y89542D01*
X-5000Y89420D01*
X-4073Y89542D01*
X-3210Y89899D01*
X-2468Y90468D01*
X-1899Y91210D01*
X-1542Y92073D01*
X-1420Y93000D01*
X-1542Y93927D01*
X-1899Y94790D01*
X-2468Y95532D01*
X-3210Y96101D01*
X-4073Y96458D01*
X-5000Y96580D01*
D02*
G37*
G36*
X-15000D02*
X-15927Y96458D01*
X-16790Y96101D01*
X-17532Y95532D01*
X-18101Y94790D01*
X-18458Y93927D01*
X-18580Y93000D01*
X-18458Y92073D01*
X-18101Y91210D01*
X-17532Y90468D01*
X-16790Y89899D01*
X-15927Y89542D01*
X-15000Y89420D01*
X-14073Y89542D01*
X-13210Y89899D01*
X-12468Y90468D01*
X-11899Y91210D01*
X-11542Y92073D01*
X-11420Y93000D01*
X-11542Y93927D01*
X-11899Y94790D01*
X-12468Y95532D01*
X-13210Y96101D01*
X-14073Y96458D01*
X-15000Y96580D01*
D02*
G37*
G36*
X16575Y96588D02*
X13425D01*
X12655Y96435D01*
X12001Y95999D01*
X11565Y95345D01*
X11412Y94575D01*
Y91425D01*
X11565Y90655D01*
X12001Y90001D01*
X12655Y89565D01*
X13425Y89412D01*
X16575D01*
X17345Y89565D01*
X17999Y90001D01*
X18435Y90655D01*
X18588Y91425D01*
Y94575D01*
X18435Y95345D01*
X17999Y95999D01*
X17345Y96435D01*
X16575Y96588D01*
D02*
G37*
G36*
X-88000Y85848D02*
Y76500D01*
X-78652D01*
X-78793Y77931D01*
X-79356Y79788D01*
X-80270Y81499D01*
X-81501Y82999D01*
X-83001Y84230D01*
X-84712Y85144D01*
X-86569Y85707D01*
X-88000Y85848D01*
D02*
G37*
G36*
X-89000D02*
X-90431Y85707D01*
X-92288Y85144D01*
X-93999Y84230D01*
X-95499Y82999D01*
X-96730Y81499D01*
X-97644Y79788D01*
X-98207Y77931D01*
X-98348Y76500D01*
X-89000D01*
Y85848D01*
D02*
G37*
G36*
X89000Y83348D02*
Y74000D01*
X98348D01*
X98207Y75431D01*
X97644Y77288D01*
X96730Y78999D01*
X95499Y80499D01*
X93999Y81730D01*
X92288Y82644D01*
X90431Y83207D01*
X89000Y83348D01*
D02*
G37*
G36*
X88000D02*
X86569Y83207D01*
X84712Y82644D01*
X83001Y81730D01*
X81501Y80499D01*
X80270Y78999D01*
X79356Y77288D01*
X78793Y75431D01*
X78652Y74000D01*
X88000D01*
Y83348D01*
D02*
G37*
G36*
X21500Y72927D02*
X20954Y72819D01*
X20491Y72509D01*
X20181Y72046D01*
X20073Y71500D01*
X20181Y70954D01*
X20491Y70491D01*
X20954Y70181D01*
X21500Y70073D01*
X22046Y70181D01*
X22509Y70491D01*
X22819Y70954D01*
X22927Y71500D01*
X22819Y72046D01*
X22509Y72509D01*
X22046Y72819D01*
X21500Y72927D01*
D02*
G37*
G36*
X-78652Y75500D02*
X-88000D01*
Y66152D01*
X-86569Y66293D01*
X-84712Y66856D01*
X-83001Y67770D01*
X-81501Y69001D01*
X-80270Y70501D01*
X-79356Y72212D01*
X-78793Y74069D01*
X-78652Y75500D01*
D02*
G37*
G36*
X-89000D02*
X-98348D01*
X-98207Y74069D01*
X-97644Y72212D01*
X-96730Y70501D01*
X-95499Y69001D01*
X-93999Y67770D01*
X-92288Y66856D01*
X-90431Y66293D01*
X-89000Y66152D01*
Y75500D01*
D02*
G37*
G36*
X44500Y72481D02*
X43599Y72362D01*
X42759Y72015D01*
X42039Y71461D01*
X41485Y70740D01*
X41138Y69901D01*
X41019Y69000D01*
X41138Y68099D01*
X41485Y67260D01*
X42039Y66539D01*
X42759Y65985D01*
X43599Y65638D01*
X44500Y65519D01*
X45401Y65638D01*
X46240Y65985D01*
X46961Y66539D01*
X47515Y67260D01*
X47862Y68099D01*
X47981Y69000D01*
X47862Y69901D01*
X47515Y70740D01*
X46961Y71461D01*
X46240Y72015D01*
X45401Y72362D01*
X44500Y72481D01*
D02*
G37*
G36*
X35000Y65940D02*
Y64500D01*
X36440D01*
X36384Y64780D01*
X35942Y65442D01*
X35280Y65884D01*
X35000Y65940D01*
D02*
G37*
G36*
X34000D02*
X33720Y65884D01*
X33058Y65442D01*
X32616Y64780D01*
X32560Y64500D01*
X34000D01*
Y65940D01*
D02*
G37*
G36*
X21500D02*
Y64500D01*
X22940D01*
X22884Y64780D01*
X22442Y65442D01*
X21780Y65884D01*
X21500Y65940D01*
D02*
G37*
G36*
X20500D02*
X20220Y65884D01*
X19558Y65442D01*
X19116Y64780D01*
X19060Y64500D01*
X20500D01*
Y65940D01*
D02*
G37*
G36*
X98348Y73000D02*
X89000D01*
Y63652D01*
X90431Y63793D01*
X92288Y64356D01*
X93999Y65270D01*
X95499Y66501D01*
X96730Y68001D01*
X97644Y69712D01*
X98207Y71569D01*
X98348Y73000D01*
D02*
G37*
G36*
X88000D02*
X78652D01*
X78793Y71569D01*
X79356Y69712D01*
X80270Y68001D01*
X81501Y66501D01*
X83001Y65270D01*
X84712Y64356D01*
X86569Y63793D01*
X88000Y63652D01*
Y73000D01*
D02*
G37*
G36*
X36440Y63500D02*
X35000D01*
Y62060D01*
X35280Y62116D01*
X35942Y62558D01*
X36384Y63220D01*
X36440Y63500D01*
D02*
G37*
G36*
X34000D02*
X32560D01*
X32616Y63220D01*
X33058Y62558D01*
X33720Y62116D01*
X34000Y62060D01*
Y63500D01*
D02*
G37*
G36*
X22940D02*
X21500D01*
Y62060D01*
X21780Y62116D01*
X22442Y62558D01*
X22884Y63220D01*
X22940Y63500D01*
D02*
G37*
G36*
X20500D02*
X19060D01*
X19116Y63220D01*
X19558Y62558D01*
X20220Y62116D01*
X20500Y62060D01*
Y63500D01*
D02*
G37*
G36*
X-53461Y59935D02*
X-54007Y59827D01*
X-54470Y59517D01*
X-54779Y59054D01*
X-54888Y58508D01*
X-54779Y57962D01*
X-54470Y57499D01*
X-54007Y57189D01*
X-53461Y57080D01*
X-52914Y57189D01*
X-52451Y57499D01*
X-52142Y57962D01*
X-52033Y58508D01*
X-52142Y59054D01*
X-52451Y59517D01*
X-52914Y59827D01*
X-53461Y59935D01*
D02*
G37*
G36*
X20500Y58427D02*
X19954Y58319D01*
X19491Y58009D01*
X19181Y57546D01*
X19073Y57000D01*
X19181Y56454D01*
X19491Y55991D01*
X19954Y55681D01*
X20500Y55573D01*
X21046Y55681D01*
X21509Y55991D01*
X21819Y56454D01*
X21927Y57000D01*
X21819Y57546D01*
X21509Y58009D01*
X21046Y58319D01*
X20500Y58427D01*
D02*
G37*
G36*
X-41961Y55948D02*
Y54508D01*
X-40521D01*
X-40577Y54788D01*
X-41019Y55450D01*
X-41680Y55892D01*
X-41961Y55948D01*
D02*
G37*
G36*
X-42961D02*
X-43241Y55892D01*
X-43903Y55450D01*
X-44345Y54788D01*
X-44400Y54508D01*
X-42961D01*
Y55948D01*
D02*
G37*
G36*
X-40521Y53508D02*
X-41961D01*
Y52068D01*
X-41680Y52124D01*
X-41019Y52566D01*
X-40577Y53228D01*
X-40521Y53508D01*
D02*
G37*
G36*
X-42961D02*
X-44400D01*
X-44345Y53228D01*
X-43903Y52566D01*
X-43241Y52124D01*
X-42961Y52068D01*
Y53508D01*
D02*
G37*
G36*
X108500Y54427D02*
X107954Y54319D01*
X107491Y54009D01*
X107181Y53546D01*
X107073Y53000D01*
X107181Y52454D01*
X107491Y51991D01*
X107954Y51681D01*
X108500Y51573D01*
X109046Y51681D01*
X109509Y51991D01*
X109819Y52454D01*
X109927Y53000D01*
X109819Y53546D01*
X109509Y54009D01*
X109046Y54319D01*
X108500Y54427D01*
D02*
G37*
G36*
X33500D02*
X32954Y54319D01*
X32491Y54009D01*
X32181Y53546D01*
X32073Y53000D01*
X32181Y52454D01*
X32491Y51991D01*
X32954Y51681D01*
X33500Y51573D01*
X34046Y51681D01*
X34509Y51991D01*
X34819Y52454D01*
X34927Y53000D01*
X34819Y53546D01*
X34509Y54009D01*
X34046Y54319D01*
X33500Y54427D01*
D02*
G37*
G36*
X22000Y52940D02*
Y51500D01*
X23440D01*
X23384Y51780D01*
X22942Y52442D01*
X22280Y52884D01*
X22000Y52940D01*
D02*
G37*
G36*
X21000D02*
X20720Y52884D01*
X20058Y52442D01*
X19616Y51780D01*
X19560Y51500D01*
X21000D01*
Y52940D01*
D02*
G37*
G36*
X23440Y50500D02*
X22000D01*
Y49060D01*
X22280Y49116D01*
X22942Y49558D01*
X23384Y50220D01*
X23440Y50500D01*
D02*
G37*
G36*
X21000D02*
X19560D01*
X19616Y50220D01*
X20058Y49558D01*
X20720Y49116D01*
X21000Y49060D01*
Y50500D01*
D02*
G37*
G36*
X-1500Y48211D02*
Y46772D01*
X-60D01*
X-116Y47052D01*
X-558Y47714D01*
X-1220Y48156D01*
X-1500Y48211D01*
D02*
G37*
G36*
X-2500D02*
X-2780Y48156D01*
X-3442Y47714D01*
X-3884Y47052D01*
X-3940Y46772D01*
X-2500D01*
Y48211D01*
D02*
G37*
G36*
X48500Y52481D02*
X47599Y52362D01*
X46760Y52015D01*
X46039Y51461D01*
X45485Y50740D01*
X45138Y49901D01*
X45019Y49000D01*
X45138Y48099D01*
X45485Y47260D01*
X46039Y46539D01*
X46760Y45985D01*
X47599Y45638D01*
X48500Y45519D01*
X49401Y45638D01*
X50240Y45985D01*
X50961Y46539D01*
X51515Y47260D01*
X51862Y48099D01*
X51981Y49000D01*
X51862Y49901D01*
X51515Y50740D01*
X50961Y51461D01*
X50240Y52015D01*
X49401Y52362D01*
X48500Y52481D01*
D02*
G37*
G36*
X40500D02*
X39599Y52362D01*
X38759Y52015D01*
X38039Y51461D01*
X37485Y50740D01*
X37138Y49901D01*
X37019Y49000D01*
X37138Y48099D01*
X37485Y47260D01*
X38039Y46539D01*
X38759Y45985D01*
X39599Y45638D01*
X40500Y45519D01*
X41401Y45638D01*
X42241Y45985D01*
X42961Y46539D01*
X43515Y47260D01*
X43862Y48099D01*
X43981Y49000D01*
X43862Y49901D01*
X43515Y50740D01*
X42961Y51461D01*
X42241Y52015D01*
X41401Y52362D01*
X40500Y52481D01*
D02*
G37*
G36*
X-60Y45772D02*
X-1500D01*
Y44332D01*
X-1220Y44388D01*
X-558Y44830D01*
X-116Y45491D01*
X-60Y45772D01*
D02*
G37*
G36*
X-2500D02*
X-3940D01*
X-3884Y45491D01*
X-3442Y44830D01*
X-2780Y44388D01*
X-2500Y44332D01*
Y45772D01*
D02*
G37*
G36*
X88000Y42427D02*
X87454Y42319D01*
X86991Y42009D01*
X86681Y41546D01*
X86573Y41000D01*
X86681Y40454D01*
X86991Y39991D01*
X87454Y39681D01*
X88000Y39573D01*
X88546Y39681D01*
X89009Y39991D01*
X89319Y40454D01*
X89427Y41000D01*
X89319Y41546D01*
X89009Y42009D01*
X88546Y42319D01*
X88000Y42427D01*
D02*
G37*
G36*
X-54500Y38440D02*
Y37000D01*
X-53060D01*
X-53116Y37280D01*
X-53558Y37942D01*
X-54220Y38384D01*
X-54500Y38440D01*
D02*
G37*
G36*
X-55500D02*
X-55780Y38384D01*
X-56442Y37942D01*
X-56884Y37280D01*
X-56940Y37000D01*
X-55500D01*
Y38440D01*
D02*
G37*
G36*
X14000Y37427D02*
X13454Y37319D01*
X12991Y37009D01*
X12681Y36546D01*
X12573Y36000D01*
X12681Y35454D01*
X12991Y34991D01*
X13454Y34681D01*
X14000Y34573D01*
X14546Y34681D01*
X15009Y34991D01*
X15319Y35454D01*
X15427Y36000D01*
X15319Y36546D01*
X15009Y37009D01*
X14546Y37319D01*
X14000Y37427D01*
D02*
G37*
G36*
X-53060Y36000D02*
X-54500D01*
Y34560D01*
X-54220Y34616D01*
X-53558Y35058D01*
X-53116Y35720D01*
X-53060Y36000D01*
D02*
G37*
G36*
X-55500D02*
X-56940D01*
X-56884Y35720D01*
X-56442Y35058D01*
X-55780Y34616D01*
X-55500Y34560D01*
Y36000D01*
D02*
G37*
G36*
X-31000Y33672D02*
X-31546Y33563D01*
X-32009Y33253D01*
X-32319Y32790D01*
X-32427Y32244D01*
X-32319Y31698D01*
X-32009Y31235D01*
X-31546Y30925D01*
X-31000Y30817D01*
X-30454Y30925D01*
X-29991Y31235D01*
X-29681Y31698D01*
X-29573Y32244D01*
X-29681Y32790D01*
X-29991Y33253D01*
X-30454Y33563D01*
X-31000Y33672D01*
D02*
G37*
G36*
X97500Y33427D02*
X96954Y33319D01*
X96491Y33009D01*
X96181Y32546D01*
X96073Y32000D01*
X96181Y31454D01*
X96491Y30991D01*
X96954Y30681D01*
X97500Y30573D01*
X98046Y30681D01*
X98509Y30991D01*
X98819Y31454D01*
X98927Y32000D01*
X98819Y32546D01*
X98509Y33009D01*
X98046Y33319D01*
X97500Y33427D01*
D02*
G37*
G36*
X-63500Y30927D02*
X-64046Y30819D01*
X-64509Y30509D01*
X-64819Y30046D01*
X-64927Y29500D01*
X-64819Y28954D01*
X-64509Y28491D01*
X-64046Y28181D01*
X-63500Y28073D01*
X-62954Y28181D01*
X-62491Y28491D01*
X-62181Y28954D01*
X-62073Y29500D01*
X-62181Y30046D01*
X-62491Y30509D01*
X-62954Y30819D01*
X-63500Y30927D01*
D02*
G37*
G36*
X14248Y28956D02*
Y27516D01*
X15688D01*
X15632Y27796D01*
X15190Y28458D01*
X14528Y28900D01*
X14248Y28956D01*
D02*
G37*
G36*
X13248D02*
X12968Y28900D01*
X12306Y28458D01*
X11864Y27796D01*
X11808Y27516D01*
X13248D01*
Y28956D01*
D02*
G37*
G36*
X-30000Y28184D02*
Y26744D01*
X-28560D01*
X-28616Y27024D01*
X-29058Y27686D01*
X-29720Y28128D01*
X-30000Y28184D01*
D02*
G37*
G36*
X-31000D02*
X-31280Y28128D01*
X-31942Y27686D01*
X-32384Y27024D01*
X-32440Y26744D01*
X-31000D01*
Y28184D01*
D02*
G37*
G36*
X15688Y26516D02*
X14248D01*
Y25076D01*
X14528Y25132D01*
X15190Y25574D01*
X15632Y26235D01*
X15688Y26516D01*
D02*
G37*
G36*
X13248D02*
X11808D01*
X11864Y26235D01*
X12306Y25574D01*
X12968Y25132D01*
X13248Y25076D01*
Y26516D01*
D02*
G37*
G36*
X-15000Y27427D02*
X-15546Y27319D01*
X-16009Y27009D01*
X-16319Y26546D01*
X-16427Y26000D01*
X-16319Y25454D01*
X-16009Y24991D01*
X-15546Y24681D01*
X-15000Y24573D01*
X-14454Y24681D01*
X-13991Y24991D01*
X-13681Y25454D01*
X-13573Y26000D01*
X-13681Y26546D01*
X-13991Y27009D01*
X-14454Y27319D01*
X-15000Y27427D01*
D02*
G37*
G36*
X-28560Y25744D02*
X-30000D01*
Y24304D01*
X-29720Y24360D01*
X-29058Y24802D01*
X-28616Y25464D01*
X-28560Y25744D01*
D02*
G37*
G36*
X-31000D02*
X-32440D01*
X-32384Y25464D01*
X-31942Y24802D01*
X-31280Y24360D01*
X-31000Y24304D01*
Y25744D01*
D02*
G37*
G36*
X120500Y26427D02*
X119954Y26319D01*
X119491Y26009D01*
X119181Y25546D01*
X119073Y25000D01*
X119181Y24454D01*
X119491Y23991D01*
X119954Y23681D01*
X120500Y23573D01*
X121046Y23681D01*
X121509Y23991D01*
X121819Y24454D01*
X121927Y25000D01*
X121819Y25546D01*
X121509Y26009D01*
X121046Y26319D01*
X120500Y26427D01*
D02*
G37*
G36*
X19000Y24427D02*
X18454Y24319D01*
X17991Y24009D01*
X17854Y23806D01*
X13335D01*
X13027Y23744D01*
X12765Y23570D01*
X-7007Y3798D01*
X-12158D01*
X-13120Y4760D01*
X-13073Y5000D01*
X-13181Y5546D01*
X-13491Y6009D01*
X-13954Y6319D01*
X-14500Y6427D01*
X-15046Y6319D01*
X-15509Y6009D01*
X-15819Y5546D01*
X-15927Y5000D01*
X-15819Y4454D01*
X-15509Y3991D01*
X-15046Y3681D01*
X-14500Y3573D01*
X-14259Y3620D01*
X-13062Y2423D01*
X-12800Y2248D01*
X-12492Y2187D01*
X-6673D01*
X-6365Y2248D01*
X-6103Y2423D01*
X13669Y22195D01*
X17854D01*
X17991Y21991D01*
X18454Y21681D01*
X19000Y21573D01*
X19546Y21681D01*
X20009Y21991D01*
X20319Y22454D01*
X20427Y23000D01*
X20319Y23546D01*
X20009Y24009D01*
X19546Y24319D01*
X19000Y24427D01*
D02*
G37*
G36*
X-1500Y33927D02*
X-2046Y33819D01*
X-2509Y33509D01*
X-2819Y33046D01*
X-2927Y32500D01*
X-2819Y31954D01*
X-2509Y31491D01*
X-2306Y31354D01*
Y22000D01*
X-2244Y21692D01*
X-2070Y21430D01*
X1120Y18240D01*
X1073Y18000D01*
X1181Y17454D01*
X1491Y16991D01*
X1954Y16681D01*
X2500Y16573D01*
X3046Y16681D01*
X3509Y16991D01*
X3819Y17454D01*
X3927Y18000D01*
X3819Y18546D01*
X3509Y19009D01*
X3046Y19319D01*
X2500Y19427D01*
X2259Y19380D01*
X-695Y22334D01*
Y31354D01*
X-491Y31491D01*
X-181Y31954D01*
X-73Y32500D01*
X-181Y33046D01*
X-491Y33509D01*
X-954Y33819D01*
X-1500Y33927D01*
D02*
G37*
G36*
X-29500Y17427D02*
X-30046Y17319D01*
X-30509Y17009D01*
X-30819Y16546D01*
X-30927Y16000D01*
X-30819Y15454D01*
X-30509Y14991D01*
X-30046Y14681D01*
X-29500Y14573D01*
X-28954Y14681D01*
X-28491Y14991D01*
X-28181Y15454D01*
X-28073Y16000D01*
X-28181Y16546D01*
X-28491Y17009D01*
X-28954Y17319D01*
X-29500Y17427D01*
D02*
G37*
G36*
X-71500Y16927D02*
X-72046Y16819D01*
X-72509Y16509D01*
X-72819Y16046D01*
X-72927Y15500D01*
X-72819Y14954D01*
X-72509Y14491D01*
X-72046Y14181D01*
X-71500Y14073D01*
X-70954Y14181D01*
X-70491Y14491D01*
X-70181Y14954D01*
X-70073Y15500D01*
X-70181Y16046D01*
X-70491Y16509D01*
X-70954Y16819D01*
X-71500Y16927D01*
D02*
G37*
G36*
X120776Y20729D02*
X119638Y20579D01*
X118578Y20140D01*
X117668Y19442D01*
X116970Y18532D01*
X116531Y17472D01*
X116381Y16335D01*
X116531Y15197D01*
X116970Y14138D01*
X117668Y13227D01*
X118578Y12529D01*
X119638Y12090D01*
X120776Y11940D01*
X121913Y12090D01*
X122973Y12529D01*
X123883Y13227D01*
X124581Y14138D01*
X125020Y15197D01*
X125170Y16335D01*
X125020Y17472D01*
X124581Y18532D01*
X123883Y19442D01*
X122973Y20140D01*
X121913Y20579D01*
X120776Y20729D01*
D02*
G37*
G36*
X105815D02*
X104678Y20579D01*
X103618Y20140D01*
X102708Y19442D01*
X102009Y18532D01*
X101570Y17472D01*
X101421Y16335D01*
X101570Y15197D01*
X102009Y14138D01*
X102708Y13227D01*
X103618Y12529D01*
X104678Y12090D01*
X105815Y11940D01*
X106952Y12090D01*
X108012Y12529D01*
X108922Y13227D01*
X109620Y14138D01*
X110059Y15197D01*
X110209Y16335D01*
X110059Y17472D01*
X109620Y18532D01*
X108922Y19442D01*
X108012Y20140D01*
X106952Y20579D01*
X105815Y20729D01*
D02*
G37*
G36*
X-20740Y13192D02*
Y11752D01*
X-19300D01*
X-19356Y12032D01*
X-19798Y12694D01*
X-20460Y13136D01*
X-20740Y13192D01*
D02*
G37*
G36*
X-21740D02*
X-22020Y13136D01*
X-22682Y12694D01*
X-23124Y12032D01*
X-23180Y11752D01*
X-21740D01*
Y13192D01*
D02*
G37*
G36*
X-19300Y10752D02*
X-20740D01*
Y9312D01*
X-20460Y9368D01*
X-19798Y9810D01*
X-19356Y10472D01*
X-19300Y10752D01*
D02*
G37*
G36*
X-21740D02*
X-23180D01*
X-23124Y10472D01*
X-22682Y9810D01*
X-22020Y9368D01*
X-21740Y9312D01*
Y10752D01*
D02*
G37*
G36*
X89056Y6872D02*
X88509Y6763D01*
X88046Y6454D01*
X87737Y5991D01*
X87628Y5444D01*
X87737Y4898D01*
X88046Y4435D01*
X88509Y4126D01*
X89056Y4017D01*
X89602Y4126D01*
X90065Y4435D01*
X90374Y4898D01*
X90483Y5444D01*
X90374Y5991D01*
X90065Y6454D01*
X89602Y6763D01*
X89056Y6872D01*
D02*
G37*
G36*
X-65992Y3932D02*
Y2492D01*
X-64552D01*
X-64608Y2772D01*
X-65050Y3434D01*
X-65712Y3876D01*
X-65992Y3932D01*
D02*
G37*
G36*
X-66992D02*
X-67273Y3876D01*
X-67934Y3434D01*
X-68376Y2772D01*
X-68432Y2492D01*
X-66992D01*
Y3932D01*
D02*
G37*
G36*
X1500Y4927D02*
X954Y4819D01*
X491Y4509D01*
X181Y4046D01*
X73Y3500D01*
X181Y2954D01*
X491Y2491D01*
X954Y2181D01*
X1500Y2073D01*
X2046Y2181D01*
X2509Y2491D01*
X2819Y2954D01*
X2927Y3500D01*
X2819Y4046D01*
X2509Y4509D01*
X2046Y4819D01*
X1500Y4927D01*
D02*
G37*
G36*
X-64552Y1492D02*
X-65992D01*
Y52D01*
X-65712Y108D01*
X-65050Y550D01*
X-64608Y1212D01*
X-64552Y1492D01*
D02*
G37*
G36*
X-66992D02*
X-68432D01*
X-68376Y1212D01*
X-67934Y550D01*
X-67273Y108D01*
X-66992Y52D01*
Y1492D01*
D02*
G37*
G36*
X-104000Y1427D02*
X-104546Y1319D01*
X-105009Y1009D01*
X-105319Y546D01*
X-105427Y0D01*
X-105319Y-546D01*
X-105009Y-1009D01*
X-104546Y-1319D01*
X-104000Y-1427D01*
X-103454Y-1319D01*
X-102991Y-1009D01*
X-102681Y-546D01*
X-102573Y0D01*
X-102681Y546D01*
X-102991Y1009D01*
X-103454Y1319D01*
X-104000Y1427D01*
D02*
G37*
G36*
X1500Y345D02*
X954Y236D01*
X491Y-73D01*
X181Y-536D01*
X73Y-1083D01*
X181Y-1629D01*
X491Y-2092D01*
X954Y-2402D01*
X1500Y-2510D01*
X2046Y-2402D01*
X2509Y-2092D01*
X2819Y-1629D01*
X2927Y-1083D01*
X2819Y-536D01*
X2509Y-73D01*
X2046Y236D01*
X1500Y345D01*
D02*
G37*
G36*
X-38000Y60427D02*
X-38546Y60319D01*
X-39009Y60009D01*
X-39319Y59546D01*
X-39427Y59000D01*
X-39319Y58454D01*
X-39009Y57991D01*
X-38805Y57854D01*
Y16000D01*
X-38744Y15692D01*
X-38570Y15430D01*
X-30684Y7545D01*
X-30860Y7156D01*
X-31286Y7071D01*
X-31749Y6761D01*
X-32059Y6298D01*
X-32168Y5752D01*
X-32059Y5206D01*
X-31749Y4743D01*
X-31286Y4433D01*
X-30740Y4324D01*
X-30194Y4433D01*
X-29731Y4743D01*
X-29421Y5206D01*
X-29337Y5632D01*
X-28947Y5808D01*
X-16880Y-6260D01*
X-16927Y-6500D01*
X-16819Y-7046D01*
X-16509Y-7509D01*
X-16046Y-7819D01*
X-15500Y-7927D01*
X-14954Y-7819D01*
X-14491Y-7509D01*
X-14181Y-7046D01*
X-14073Y-6500D01*
X-14181Y-5954D01*
X-14491Y-5491D01*
X-14954Y-5181D01*
X-15500Y-5073D01*
X-15741Y-5120D01*
X-37194Y16334D01*
Y57854D01*
X-36991Y57991D01*
X-36681Y58454D01*
X-36573Y59000D01*
X-36681Y59546D01*
X-36991Y60009D01*
X-37454Y60319D01*
X-38000Y60427D01*
D02*
G37*
G36*
X87200Y-6573D02*
X86654Y-6681D01*
X86191Y-6991D01*
X85881Y-7454D01*
X85773Y-8000D01*
X85881Y-8546D01*
X86191Y-9009D01*
X86654Y-9319D01*
X87200Y-9427D01*
X87746Y-9319D01*
X88209Y-9009D01*
X88519Y-8546D01*
X88627Y-8000D01*
X88519Y-7454D01*
X88209Y-6991D01*
X87746Y-6681D01*
X87200Y-6573D01*
D02*
G37*
G36*
X12000Y-9643D02*
Y-11083D01*
X13440D01*
X13384Y-10802D01*
X12942Y-10141D01*
X12280Y-9699D01*
X12000Y-9643D01*
D02*
G37*
G36*
X11000D02*
X10720Y-9699D01*
X10058Y-10141D01*
X9616Y-10802D01*
X9560Y-11083D01*
X11000D01*
Y-9643D01*
D02*
G37*
G36*
X13440Y-12083D02*
X12000D01*
Y-13522D01*
X12280Y-13467D01*
X12942Y-13025D01*
X13384Y-12363D01*
X13440Y-12083D01*
D02*
G37*
G36*
X11000D02*
X9560D01*
X9616Y-12363D01*
X10058Y-13025D01*
X10720Y-13467D01*
X11000Y-13522D01*
Y-12083D01*
D02*
G37*
G36*
X-127000Y-12573D02*
X-127546Y-12681D01*
X-128009Y-12991D01*
X-128319Y-13454D01*
X-128427Y-14000D01*
X-128319Y-14546D01*
X-128009Y-15009D01*
X-127546Y-15319D01*
X-127000Y-15427D01*
X-126454Y-15319D01*
X-125991Y-15009D01*
X-125681Y-14546D01*
X-125573Y-14000D01*
X-125681Y-13454D01*
X-125991Y-12991D01*
X-126454Y-12681D01*
X-127000Y-12573D01*
D02*
G37*
G36*
X87500Y-16073D02*
X86954Y-16181D01*
X86491Y-16491D01*
X86181Y-16954D01*
X86073Y-17500D01*
X86181Y-18046D01*
X86491Y-18509D01*
X86954Y-18819D01*
X87500Y-18927D01*
X88046Y-18819D01*
X88509Y-18509D01*
X88819Y-18046D01*
X88927Y-17500D01*
X88819Y-16954D01*
X88509Y-16491D01*
X88046Y-16181D01*
X87500Y-16073D01*
D02*
G37*
G36*
X-59500D02*
X-60046Y-16181D01*
X-60509Y-16491D01*
X-60819Y-16954D01*
X-60927Y-17500D01*
X-60819Y-18046D01*
X-60509Y-18509D01*
X-60046Y-18819D01*
X-59500Y-18927D01*
X-58954Y-18819D01*
X-58491Y-18509D01*
X-58181Y-18046D01*
X-58073Y-17500D01*
X-58181Y-16954D01*
X-58491Y-16491D01*
X-58954Y-16181D01*
X-59500Y-16073D01*
D02*
G37*
G36*
X120776Y-13287D02*
X119638Y-13437D01*
X118578Y-13875D01*
X117668Y-14574D01*
X116970Y-15484D01*
X116531Y-16544D01*
X116381Y-17681D01*
X116531Y-18818D01*
X116970Y-19878D01*
X117668Y-20788D01*
X118578Y-21487D01*
X119638Y-21926D01*
X120776Y-22075D01*
X121913Y-21926D01*
X122973Y-21487D01*
X123883Y-20788D01*
X124581Y-19878D01*
X125020Y-18818D01*
X125170Y-17681D01*
X125020Y-16544D01*
X124581Y-15484D01*
X123883Y-14574D01*
X122973Y-13875D01*
X121913Y-13437D01*
X120776Y-13287D01*
D02*
G37*
G36*
X105815D02*
X104678Y-13437D01*
X103618Y-13875D01*
X102708Y-14574D01*
X102009Y-15484D01*
X101570Y-16544D01*
X101421Y-17681D01*
X101570Y-18818D01*
X102009Y-19878D01*
X102708Y-20788D01*
X103618Y-21487D01*
X104678Y-21926D01*
X105815Y-22075D01*
X106952Y-21926D01*
X108012Y-21487D01*
X108922Y-20788D01*
X109620Y-19878D01*
X110059Y-18818D01*
X110209Y-17681D01*
X110059Y-16544D01*
X109620Y-15484D01*
X108922Y-14574D01*
X108012Y-13875D01*
X106952Y-13437D01*
X105815Y-13287D01*
D02*
G37*
G36*
X94000Y-24060D02*
Y-25500D01*
X95440D01*
X95384Y-25220D01*
X94942Y-24558D01*
X94280Y-24116D01*
X94000Y-24060D01*
D02*
G37*
G36*
X93000D02*
X92720Y-24116D01*
X92058Y-24558D01*
X91616Y-25220D01*
X91560Y-25500D01*
X93000D01*
Y-24060D01*
D02*
G37*
G36*
X17043Y-25073D02*
X16497Y-25181D01*
X16034Y-25491D01*
X15724Y-25954D01*
X15616Y-26500D01*
X15724Y-27046D01*
X16034Y-27509D01*
X16497Y-27819D01*
X17043Y-27927D01*
X17590Y-27819D01*
X18053Y-27509D01*
X18362Y-27046D01*
X18471Y-26500D01*
X18362Y-25954D01*
X18053Y-25491D01*
X17590Y-25181D01*
X17043Y-25073D01*
D02*
G37*
G36*
X95440Y-26500D02*
X94000D01*
Y-27940D01*
X94280Y-27884D01*
X94942Y-27442D01*
X95384Y-26780D01*
X95440Y-26500D01*
D02*
G37*
G36*
X93000D02*
X91560D01*
X91616Y-26780D01*
X92058Y-27442D01*
X92720Y-27884D01*
X93000Y-27940D01*
Y-26500D01*
D02*
G37*
G36*
X121000Y-25573D02*
X120454Y-25681D01*
X119991Y-25991D01*
X119681Y-26454D01*
X119573Y-27000D01*
X119681Y-27546D01*
X119991Y-28009D01*
X120454Y-28319D01*
X121000Y-28427D01*
X121546Y-28319D01*
X122009Y-28009D01*
X122319Y-27546D01*
X122427Y-27000D01*
X122319Y-26454D01*
X122009Y-25991D01*
X121546Y-25681D01*
X121000Y-25573D01*
D02*
G37*
G36*
X-103500Y-30073D02*
X-104046Y-30181D01*
X-104509Y-30491D01*
X-104819Y-30954D01*
X-104927Y-31500D01*
X-104819Y-32046D01*
X-104509Y-32509D01*
X-104046Y-32819D01*
X-103500Y-32927D01*
X-102954Y-32819D01*
X-102491Y-32509D01*
X-102181Y-32046D01*
X-102073Y-31500D01*
X-102181Y-30954D01*
X-102491Y-30491D01*
X-102954Y-30181D01*
X-103500Y-30073D01*
D02*
G37*
G36*
X102000Y-32560D02*
Y-34000D01*
X103440D01*
X103384Y-33720D01*
X102942Y-33058D01*
X102280Y-32616D01*
X102000Y-32560D01*
D02*
G37*
G36*
X101000D02*
X100720Y-32616D01*
X100058Y-33058D01*
X99616Y-33720D01*
X99560Y-34000D01*
X101000D01*
Y-32560D01*
D02*
G37*
G36*
X103440Y-35000D02*
X102000D01*
Y-36440D01*
X102280Y-36384D01*
X102942Y-35942D01*
X103384Y-35280D01*
X103440Y-35000D01*
D02*
G37*
G36*
X101000D02*
X99560D01*
X99616Y-35280D01*
X100058Y-35942D01*
X100720Y-36384D01*
X101000Y-36440D01*
Y-35000D01*
D02*
G37*
G36*
X77000Y-36573D02*
X76454Y-36681D01*
X75991Y-36991D01*
X75681Y-37454D01*
X75573Y-38000D01*
X75681Y-38546D01*
X75991Y-39009D01*
X76454Y-39319D01*
X77000Y-39427D01*
X77546Y-39319D01*
X78009Y-39009D01*
X78319Y-38546D01*
X78427Y-38000D01*
X78319Y-37454D01*
X78009Y-36991D01*
X77546Y-36681D01*
X77000Y-36573D01*
D02*
G37*
G36*
X17543D02*
X16997Y-36681D01*
X16534Y-36991D01*
X16225Y-37454D01*
X16116Y-38000D01*
X16225Y-38546D01*
X16534Y-39009D01*
X16997Y-39319D01*
X17543Y-39427D01*
X18090Y-39319D01*
X18553Y-39009D01*
X18862Y-38546D01*
X18971Y-38000D01*
X18862Y-37454D01*
X18553Y-36991D01*
X18090Y-36681D01*
X17543Y-36573D01*
D02*
G37*
G36*
X87500Y-67073D02*
X86954Y-67181D01*
X86491Y-67491D01*
X86181Y-67954D01*
X86073Y-68500D01*
X86181Y-69046D01*
X86491Y-69509D01*
X86954Y-69819D01*
X87500Y-69927D01*
X88046Y-69819D01*
X88509Y-69509D01*
X88819Y-69046D01*
X88927Y-68500D01*
X88819Y-67954D01*
X88509Y-67491D01*
X88046Y-67181D01*
X87500Y-67073D01*
D02*
G37*
G36*
X-78500Y-77152D02*
Y-86500D01*
X-69152D01*
X-69292Y-85069D01*
X-69856Y-83212D01*
X-70770Y-81501D01*
X-72001Y-80001D01*
X-73501Y-78770D01*
X-75212Y-77856D01*
X-77069Y-77293D01*
X-78500Y-77152D01*
D02*
G37*
G36*
X-79500D02*
X-80931Y-77293D01*
X-82788Y-77856D01*
X-84499Y-78770D01*
X-85999Y-80001D01*
X-87230Y-81501D01*
X-88144Y-83212D01*
X-88708Y-85069D01*
X-88848Y-86500D01*
X-79500D01*
Y-77152D01*
D02*
G37*
G36*
X75000Y-79152D02*
Y-88500D01*
X84348D01*
X84207Y-87069D01*
X83644Y-85212D01*
X82730Y-83501D01*
X81499Y-82001D01*
X79999Y-80770D01*
X78288Y-79856D01*
X76431Y-79293D01*
X75000Y-79152D01*
D02*
G37*
G36*
X74000D02*
X72569Y-79293D01*
X70712Y-79856D01*
X69001Y-80770D01*
X67501Y-82001D01*
X66270Y-83501D01*
X65356Y-85212D01*
X64793Y-87069D01*
X64652Y-88500D01*
X74000D01*
Y-79152D01*
D02*
G37*
G36*
X-69152Y-87500D02*
X-78500D01*
Y-96848D01*
X-77069Y-96707D01*
X-75212Y-96144D01*
X-73501Y-95230D01*
X-72001Y-93999D01*
X-70770Y-92499D01*
X-69856Y-90788D01*
X-69292Y-88931D01*
X-69152Y-87500D01*
D02*
G37*
G36*
X-79500D02*
X-88848D01*
X-88708Y-88931D01*
X-88144Y-90788D01*
X-87230Y-92499D01*
X-85999Y-93999D01*
X-84499Y-95230D01*
X-82788Y-96144D01*
X-80931Y-96707D01*
X-79500Y-96848D01*
Y-87500D01*
D02*
G37*
G36*
X84348Y-89500D02*
X75000D01*
Y-98848D01*
X76431Y-98707D01*
X78288Y-98144D01*
X79999Y-97230D01*
X81499Y-95999D01*
X82730Y-94499D01*
X83644Y-92788D01*
X84207Y-90931D01*
X84348Y-89500D01*
D02*
G37*
G36*
X74000D02*
X64652D01*
X64793Y-90931D01*
X65356Y-92788D01*
X66270Y-94499D01*
X67501Y-95999D01*
X69001Y-97230D01*
X70712Y-98144D01*
X72569Y-98707D01*
X74000Y-98848D01*
Y-89500D01*
D02*
G37*
%LPD*%
D34*
X105815Y16335D02*
D03*
X120776D02*
D03*
Y-17681D02*
D03*
X105815D02*
D03*
D35*
X-500Y118000D02*
D03*
D36*
X88500Y73500D02*
D03*
X-88500Y76000D02*
D03*
X-79000Y-87000D02*
D03*
X74500Y-89000D02*
D03*
D37*
X48500Y49000D02*
D03*
X40500D02*
D03*
X44500Y69000D02*
D03*
D38*
X5000Y93000D02*
D03*
X-5000D02*
D03*
X-15000D02*
D03*
D39*
X15000D02*
D03*
D40*
X-38000Y16000D02*
X-15500Y-6500D01*
X-38000Y16000D02*
Y59000D01*
X-14500Y5000D02*
X-12492Y2992D01*
X-6673D01*
X13335Y23000D01*
X19000D01*
X-1500Y22000D02*
X2500Y18000D01*
X-1500Y22000D02*
Y32500D01*
D42*
X-15500Y-6500D02*
D03*
X-14500Y5000D02*
D03*
X19000Y23000D02*
D03*
X2500Y18000D02*
D03*
X1500Y3500D02*
D03*
X14000Y36000D02*
D03*
X-127000Y-14000D02*
D03*
X-103500Y-31500D02*
D03*
X-59500Y-17500D02*
D03*
X-104000Y0D02*
D03*
X-30740Y5752D02*
D03*
X1500Y-1083D02*
D03*
X-71500Y15500D02*
D03*
X-63500Y29500D02*
D03*
X-53461Y58508D02*
D03*
X-29500Y16000D02*
D03*
X-31000Y32244D02*
D03*
X-15000Y26000D02*
D03*
X77000Y-38000D02*
D03*
X17543D02*
D03*
X87500Y-68500D02*
D03*
X17043Y-26500D02*
D03*
X87500Y-17500D02*
D03*
X87200Y-8000D02*
D03*
X89056Y5444D02*
D03*
X121000Y-27000D02*
D03*
X88000Y41000D02*
D03*
X20500Y57000D02*
D03*
X33500Y53000D02*
D03*
X120500Y25000D02*
D03*
X97500Y32000D02*
D03*
X108500Y53000D02*
D03*
X21500Y71500D02*
D03*
X-1500Y32500D02*
D03*
X21000Y64000D02*
D03*
X13748Y27016D02*
D03*
X-38000Y59000D02*
D03*
X34500Y64000D02*
D03*
X21500Y51000D02*
D03*
X-2000Y46272D02*
D03*
X11500Y-11583D02*
D03*
X101500Y-34500D02*
D03*
X93500Y-26000D02*
D03*
X-21240Y11252D02*
D03*
X-42461Y54008D02*
D03*
X-30500Y26244D02*
D03*
X-55000Y36500D02*
D03*
X-66492Y1992D02*
D03*
M02*
